<svg width="43" height="43" viewBox="0 0 43 43" fill="none" xmlns="http://www.w3.org/2000/svg">
<path d="M29.9933 12.0275H12.0275V29.9932H29.9933V12.0275Z" fill="white"/>
<path d="M9.88098 -1.04904e-05L9.88098 7.68512L12.0529 7.68512L12.0529 -1.04903e-05L9.88098 -1.04904e-05Z" fill="white"/>
<path d="M9.88098 34.3205L9.88098 42.0057L12.0529 42.0057L12.0529 34.3205L9.88098 34.3205Z" fill="white"/>
<path d="M30.0007 -1.04904e-05L30.0007 7.68512L32.1726 7.68512L32.1726 -1.04903e-05L30.0007 -1.04904e-05Z" fill="white"/>
<path d="M-1.04904e-05 12.005L7.68512 12.005L7.68512 9.83312L-1.04902e-05 9.83312L-1.04904e-05 12.005Z" fill="white"/>
<path d="M-1.04904e-05 32.077L7.68512 32.077L7.68512 29.9051L-1.04902e-05 29.9051L-1.04904e-05 32.077Z" fill="white"/>
<path d="M34.3445 12.005L42.0296 12.005L42.0296 9.83312L34.3445 9.83312L34.3445 12.005Z" fill="white"/>
<path d="M34.3445 32.077L42.0296 32.077L42.0296 29.9051L34.3445 29.9051L34.3445 32.077Z" fill="white"/>
<path d="M30.0007 34.3205L30.0007 42.0057L32.1726 42.0057L32.1726 34.3205L30.0007 34.3205Z" fill="white"/>
</svg>
