<svg width="42" height="40" viewBox="0 0 42 40" fill="none" xmlns="http://www.w3.org/2000/svg">
<path d="M10.0815 11.9007C10.0815 10.1668 10.0868 8.43352 10.0781 6.69959C10.0755 6.13339 10.2975 5.72192 10.789 5.43915C13.8201 3.69322 16.8491 1.94262 19.8788 0.193345C20.333 -0.068745 20.7858 -0.062076 21.2386 0.199347C24.2677 1.94928 27.2967 3.69989 30.3271 5.44649C30.8066 5.72325 31.0273 6.12739 31.0267 6.67958C31.022 10.1688 31.0227 13.6587 31.0247 17.1479C31.0247 17.6727 30.8113 18.0662 30.3551 18.3289C28.1817 19.582 26.0083 20.8358 23.8355 22.0896C22.9892 22.5777 22.1396 23.0599 21.3 23.5587C20.7885 23.8622 20.3063 23.8495 19.7935 23.5521C16.7978 21.8141 13.7967 20.0849 10.795 18.3569C10.3035 18.0742 10.0768 17.6674 10.0801 17.0998C10.0881 15.3679 10.0821 13.634 10.0815 11.9007ZM29.3628 7.78329C29.2094 7.86666 29.1214 7.91201 29.0353 7.96136C26.5818 9.37651 24.1303 10.7957 21.6714 12.2015C21.4454 12.3309 21.3753 12.4722 21.3767 12.7243C21.386 15.3026 21.382 17.8814 21.382 20.4597C21.382 20.8198 21.382 21.1806 21.382 21.5487C21.45 21.536 21.474 21.5374 21.4914 21.528C24.0289 20.0629 26.5645 18.595 29.106 17.1365C29.3101 17.0191 29.3661 16.8851 29.3654 16.6624C29.3588 13.828 29.3614 10.9937 29.3621 8.16009C29.3628 8.05272 29.3628 7.94468 29.3628 7.78329ZM19.7208 21.5867C19.7208 21.1486 19.7208 20.7751 19.7208 20.4023C19.7208 17.8354 19.7201 15.2685 19.7228 12.7017C19.7228 12.5056 19.7061 12.3622 19.498 12.2428C16.9918 10.8097 14.4936 9.36251 11.9928 7.92001C11.9234 7.87999 11.8467 7.85265 11.7434 7.8053C11.7434 7.95002 11.7434 8.04939 11.7434 8.14875C11.7434 10.9711 11.7487 13.7934 11.7354 16.6157C11.734 16.9038 11.8347 17.0465 12.0728 17.1812C13.6173 18.0588 15.1539 18.9511 16.6931 19.8388C17.6807 20.4096 18.6697 20.9805 19.7208 21.5867ZM17.2833 9.02639C17.388 9.09708 17.458 9.1511 17.534 9.19445C18.4463 9.72263 19.3633 10.2421 20.269 10.781C20.4777 10.905 20.6304 10.9004 20.8385 10.779C23.2267 9.39052 25.6215 8.01271 28.0136 6.6309C28.1717 6.53953 28.3251 6.4415 28.5178 6.32413C27.4801 5.72525 26.4884 5.15972 25.5054 4.58019C25.3087 4.46415 25.1653 4.46548 24.9659 4.58219C23.2126 5.60588 21.4514 6.61689 19.6928 7.63191C18.8978 8.09073 18.1036 8.55156 17.2833 9.02639ZM12.5836 6.33613C13.5867 6.91433 14.5423 7.47052 15.508 8.01004C15.5807 8.05072 15.7367 7.98937 15.8308 7.93535C17.9102 6.7416 19.9869 5.54252 22.0636 4.34344C22.5498 4.06268 23.0339 3.77992 23.5521 3.47914C23.4534 3.41312 23.3934 3.36777 23.3294 3.33043C22.4937 2.84626 21.6534 2.36943 20.8232 1.87593C20.6278 1.75989 20.4837 1.75722 20.2836 1.87392C17.8755 3.27507 15.4613 4.66622 13.0485 6.06003C12.9078 6.14073 12.7697 6.22542 12.5836 6.33613Z" fill="white"/>
<path d="M33.823 22.3203C34.6773 20.9118 35.5122 19.5373 36.3458 18.1622C36.6339 17.6874 36.9147 17.2085 37.2068 16.737C37.8063 15.768 38.9447 15.4199 39.9251 15.9001C40.9261 16.3903 41.3602 17.4726 40.9661 18.545C40.0011 21.1706 39.0274 23.7928 38.0551 26.4157C37.811 27.0733 37.4042 27.6195 36.908 28.1116C35.3855 29.6208 33.8756 31.1433 32.3525 32.6519C32.1797 32.8233 32.1057 32.996 32.113 33.2361C32.1277 33.7242 32.1084 34.2137 32.127 34.7019C32.131 34.8053 32.2157 34.9493 32.3051 34.9993C33.0687 35.4248 33.4322 36.0677 33.4222 36.9373C33.4142 37.6596 33.4215 38.3818 33.4195 39.1041C33.4175 39.6269 33.098 39.9884 32.6352 39.9997C32.1564 40.0111 31.8169 39.6496 31.8136 39.1114C31.8089 38.4005 31.8143 37.6896 31.8116 36.978C31.8096 36.5339 31.6822 36.4072 31.2327 36.4072C29.1554 36.4065 27.0773 36.4072 24.9999 36.4092C24.5571 36.4098 24.4351 36.5359 24.4337 36.9914C24.4317 37.6916 24.4364 38.3912 24.4324 39.0914C24.4291 39.6389 24.1049 39.9997 23.6281 39.9977C23.1459 39.9957 22.8272 39.6403 22.8238 39.0894C22.8198 38.3452 22.8252 37.6009 22.8212 36.856C22.8178 36.2031 23.0779 35.6802 23.5554 35.2421C23.6595 35.1467 23.7408 34.9693 23.7422 34.8286C23.7555 33.3401 23.7515 31.8509 23.7502 30.3624C23.7488 29.1347 24.1783 28.087 25.0473 27.218C26.7125 25.5534 28.4084 23.9175 30.031 22.2116C31.1387 21.0479 32.7946 21.0212 33.823 22.3203ZM30.5018 34.7833C30.5018 34.097 30.5178 33.4528 30.4958 32.8099C30.4818 32.4004 30.6212 32.0923 30.9106 31.8062C32.5692 30.165 34.2258 28.5224 35.857 26.8545C36.1578 26.5471 36.4085 26.149 36.5646 25.7475C37.2295 24.0416 37.851 22.3183 38.4872 20.6004C38.8033 19.7467 39.1195 18.8925 39.4316 18.0375C39.5456 17.7247 39.4616 17.464 39.2242 17.3513C38.9847 17.2372 38.7447 17.3359 38.5593 17.624C38.5353 17.6614 38.5126 17.6994 38.4892 17.7374C37.3208 19.6654 36.1531 21.5941 34.9834 23.5207C34.828 23.7768 34.7006 24.0636 34.4952 24.2723C33.038 25.7528 31.5649 27.2173 30.0937 28.6838C29.8743 28.9026 29.6048 28.9846 29.2981 28.8946C28.6719 28.7125 28.5185 27.9823 29.0106 27.4861C30.0823 26.4057 31.164 25.3347 32.2324 24.2503C32.3745 24.1063 32.5105 23.9209 32.5599 23.7308C32.6412 23.42 32.4918 23.1666 32.2064 23.0125C31.9103 22.8532 31.6242 22.9245 31.3128 23.2353C29.5915 24.9552 27.8709 26.6751 26.1517 28.3977C25.6235 28.9266 25.3627 29.5721 25.3607 30.3171C25.3567 31.7062 25.3594 33.0954 25.3607 34.4838C25.3607 34.5799 25.374 34.6752 25.3821 34.7813C27.092 34.7833 28.7759 34.7833 30.5018 34.7833Z" fill="white"/>
<path d="M7.2898 22.3077C7.38517 22.2043 7.46386 22.1156 7.54656 22.0303C8.43486 21.1173 9.87536 21.0666 10.7837 21.9596C12.597 23.7442 14.3989 25.5415 16.1835 27.3548C16.9725 28.1564 17.3486 29.1541 17.3513 30.2824C17.3546 31.7943 17.3466 33.3055 17.3613 34.8173C17.3626 34.9667 17.4533 35.1535 17.564 35.2568C18.0202 35.6816 18.2789 36.1851 18.2816 36.8114C18.2849 37.5783 18.2856 38.3452 18.2816 39.1122C18.2789 39.6383 17.9595 39.9905 17.488 39.9998C17.0091 40.0091 16.6764 39.6497 16.6724 39.1042C16.667 38.3926 16.673 37.6817 16.6704 36.9701C16.669 36.5393 16.5417 36.4092 16.1168 36.4086C14.0275 36.4072 11.9381 36.4079 9.84868 36.4092C9.4232 36.4099 9.29583 36.5386 9.29382 36.9688C9.29049 37.6803 9.29449 38.3912 9.29116 39.1028C9.28849 39.6437 8.95504 40.0065 8.47754 39.9991C8.01272 39.9918 7.68861 39.635 7.68594 39.1115C7.68127 38.3559 7.68127 37.5996 7.68594 36.844C7.69127 36.0278 8.05607 35.4149 8.77231 35.0281C8.93637 34.9394 8.99105 34.8467 8.98839 34.67C8.98038 34.1811 9.00706 33.691 8.97972 33.2035C8.96971 33.0261 8.88902 32.8113 8.76631 32.6866C7.25979 31.1601 5.7466 29.6402 4.21941 28.1337C3.64521 27.5675 3.22974 26.9193 2.95297 26.1637C2.02932 23.6402 1.091 21.1226 0.156676 18.6031C-0.254799 17.494 0.163345 16.3903 1.18636 15.8962C2.18871 15.4113 3.33044 15.7901 3.93998 16.8011C4.98968 18.5417 6.04404 20.2797 7.09707 22.0183C7.15309 22.1116 7.21778 22.1997 7.2898 22.3077ZM15.7427 34.7893C15.7427 34.6386 15.7427 34.5192 15.7427 34.3999C15.7427 33.0667 15.7394 31.7336 15.744 30.3998C15.7474 29.5915 15.4706 28.9093 14.8931 28.3378C13.7013 27.1574 12.5196 25.967 11.3332 24.7805C10.791 24.2384 10.2495 23.6962 9.70463 23.1573C9.48789 22.9426 9.23114 22.8692 8.94237 22.9966C8.67428 23.1146 8.49021 23.3307 8.53756 23.6201C8.57291 23.8316 8.68828 24.063 8.839 24.217C9.90203 25.3061 10.9837 26.3764 12.0574 27.4548C12.4703 27.8689 12.5049 28.3338 12.1568 28.6886C11.814 29.038 11.3265 29.004 10.9231 28.6012C9.53991 27.2194 8.1561 25.8389 6.77629 24.4538C6.64425 24.3217 6.5202 24.1743 6.4235 24.0156C5.46317 22.4424 4.50951 20.8652 3.55318 19.2893C3.20173 18.7105 2.8516 18.1303 2.49615 17.5541C2.34476 17.308 2.11602 17.2393 1.8646 17.3687C1.62718 17.4907 1.55783 17.7068 1.64452 17.9649C1.66586 18.0282 1.68854 18.0902 1.71188 18.1529C2.6562 20.7031 3.58919 23.2574 4.55619 25.7989C4.70158 26.181 4.95033 26.5532 5.23709 26.8473C6.67226 28.3178 8.14276 29.7536 9.58793 31.2148C10.793 32.4339 10.5869 31.9237 10.6023 33.6623C10.6056 34.0344 10.6029 34.4065 10.6029 34.79C12.3342 34.7893 14.0095 34.7893 15.7427 34.7893Z" fill="white"/>
</svg>
