<svg width="18" height="25" viewBox="0 0 18 25" fill="none" xmlns="http://www.w3.org/2000/svg">
<path d="M11.0636 25C9.79842 25 8.60296 24.6702 7.49772 24.0149C6.76661 23.581 6.09361 23.0092 5.44054 22.2665C5.02046 21.7883 4.6253 21.2808 4.24397 20.7893C4.0331 20.5182 3.81504 20.2376 3.59588 19.9664C2.50447 18.6148 1.42524 17.286 0.388621 16.0164C0.0183609 15.5631 -0.0956503 14.9665 0.0825614 14.4197C0.255239 13.8906 0.680843 13.4904 1.22101 13.3493C1.82372 13.1921 2.36832 13.336 2.79614 13.766C3.18854 14.1606 3.58093 14.5553 3.97333 14.9499L4.78967 15.7712C4.78967 15.7612 4.78912 15.7507 4.78912 15.7407V13.3598C4.78912 10.3341 4.78912 7.3089 4.78857 4.28318C4.78857 3.67327 5.03264 3.21114 5.51525 2.90951C6.03162 2.58685 6.58618 2.5708 7.1186 2.86302C7.64161 3.15026 7.9189 3.61959 7.92 4.22119C7.92277 5.83949 7.92277 7.48435 7.92222 9.07552C7.92222 9.70258 7.92166 10.3296 7.92222 10.9562C7.92222 11.0613 7.92221 11.1659 7.92443 11.2711C7.92609 11.3502 7.96262 11.3502 7.97645 11.3502C7.9925 11.3508 8.02516 11.3508 8.02682 11.2744C8.03014 11.1327 8.0318 11.0176 8.0318 10.9113L8.03235 1.56407C8.03235 0.778163 8.57529 0.142246 9.35178 0.018273C9.79455 -0.0525689 10.2456 0.0680837 10.5893 0.348684C10.9324 0.629285 11.1405 1.04659 11.1594 1.49433C11.1616 1.54857 11.1621 1.60281 11.1621 1.6576V11.2179L11.1616 11.25C11.1616 11.2672 11.161 11.2849 11.1621 11.3021C11.1638 11.3275 11.1815 11.3474 11.2047 11.3502C11.2169 11.3519 11.2457 11.3519 11.254 11.3209C11.2629 11.2882 11.2634 11.2412 11.264 11.1997C11.264 10.2809 11.264 9.36221 11.264 8.44348C11.264 6.80415 11.264 5.16538 11.2656 3.52605C11.2662 2.84586 11.5916 2.34333 12.2059 2.07324C12.6869 1.86127 13.216 1.8978 13.6576 2.17397C14.0976 2.44848 14.3727 2.92611 14.3932 3.45078C14.3948 3.49783 14.3948 3.54487 14.3948 3.59192V3.62235V11.2185V11.2401C14.3948 11.2534 14.3948 11.2661 14.3948 11.2794C14.3976 11.348 14.4325 11.3497 14.4435 11.3502C14.4773 11.3497 14.4956 11.3297 14.4978 11.2855C14.5028 11.1947 14.5028 11.1034 14.5022 11.0065V9.02958C14.5022 8.05938 14.5022 7.08918 14.5022 6.11898C14.5028 5.34802 15.0357 4.71653 15.7989 4.5837C16.5572 4.45198 17.2872 4.87316 17.5346 5.5849C17.5971 5.76422 17.6303 5.97287 17.6309 6.18816C17.6353 7.86789 17.6353 9.57584 17.6348 11.2279V12.5269C17.6348 13.0881 17.6353 13.6493 17.6359 14.2105C17.6375 15.6029 17.6392 17.043 17.6303 18.4593C17.6264 19.1223 17.5977 19.8319 17.4161 20.5231C17.1859 21.402 16.7503 22.1912 16.1216 22.8692C15.0579 24.016 13.7008 24.7083 12.0881 24.927C11.7427 24.9762 11.4007 25 11.0636 25ZM1.68204 13.6747C1.56581 13.6747 1.44461 13.6913 1.31897 13.724C0.900564 13.833 0.583989 14.1302 0.450607 14.5392C0.313351 14.9598 0.402457 15.4203 0.688592 15.7712C1.72576 17.0414 2.80555 18.3708 3.89751 19.7223C4.11889 19.9962 4.33806 20.2785 4.55003 20.5514C4.92804 21.0378 5.31933 21.5409 5.73165 22.0103C6.35705 22.722 6.99961 23.2688 7.6953 23.6811C9.0175 24.4654 10.4781 24.7565 12.0366 24.5456C13.558 24.3397 14.8371 23.6878 15.8382 22.6085C16.4232 21.9782 16.8284 21.2443 17.042 20.4279C17.2125 19.7782 17.2396 19.098 17.2435 18.4599C17.2523 17.0447 17.2507 15.6052 17.249 14.2138C17.2484 13.6526 17.2479 13.0908 17.2479 12.5296H17.4416H17.2479V11.2301C17.2484 9.57861 17.2484 7.87121 17.244 6.19203C17.2435 6.01936 17.218 5.85388 17.1693 5.71496C16.9844 5.18309 16.4365 4.86873 15.8659 4.9678C15.2914 5.06797 14.8902 5.54228 14.8902 6.12119C14.8896 7.09139 14.8896 8.0616 14.8902 9.0318V11.0082C14.8902 11.1061 14.8907 11.2074 14.8852 11.3093C14.8714 11.5638 14.6743 11.7504 14.4292 11.7393C14.1939 11.7304 14.0168 11.5439 14.0074 11.2954C14.0069 11.2766 14.0069 11.2578 14.0069 11.2395V11.2207V3.62457V3.59302C14.0069 3.55096 14.0069 3.50945 14.0052 3.46739C13.9897 3.06503 13.7877 2.71359 13.4518 2.50383C13.1208 2.29684 12.7234 2.26972 12.3615 2.42911C11.8916 2.6361 11.653 3.00581 11.6525 3.52827C11.6508 5.16704 11.6508 6.80637 11.6508 8.44514C11.6508 9.36387 11.6508 10.2826 11.6508 11.2013C11.6508 11.2683 11.6492 11.3458 11.6276 11.4249C11.5711 11.6308 11.3735 11.762 11.1588 11.7365C10.9507 11.7116 10.7891 11.54 10.7753 11.3292C10.7736 11.3015 10.7736 11.2738 10.7742 11.2456V11.2196V1.65926C10.7742 1.61056 10.7742 1.56185 10.7719 1.51259C10.7576 1.17001 10.6054 0.863948 10.3436 0.650316C10.0818 0.436683 9.75082 0.348684 9.41211 0.402369C8.82711 0.495902 8.41866 0.974085 8.41866 1.56517L8.41811 10.913C8.41811 11.0226 8.41645 11.1405 8.41313 11.2849C8.40704 11.5489 8.22385 11.7387 7.97645 11.7387C7.97479 11.7387 7.97313 11.7387 7.97147 11.7387C7.72519 11.736 7.54199 11.5434 7.53591 11.2805C7.53369 11.1726 7.53369 11.0646 7.53369 10.9567C7.53369 10.3296 7.53369 9.70258 7.53369 9.07552C7.53425 7.4849 7.53425 5.83949 7.53148 4.22174C7.53037 3.76349 7.32891 3.42034 6.93098 3.20228C6.52253 2.97869 6.11519 2.99031 5.71892 3.23771C5.35254 3.46683 5.17432 3.80832 5.17432 4.28262C5.17543 7.30835 5.17488 10.3335 5.17488 13.3592V15.7402C5.17488 15.7491 5.17488 15.7585 5.17543 15.7673C5.17598 15.8 5.17709 15.8398 5.171 15.8835C5.15385 16.0042 5.07802 16.1066 4.96899 16.1586C4.85996 16.2106 4.73267 16.204 4.62862 16.1409C4.58158 16.1121 4.54671 16.0772 4.51904 16.049L3.69716 15.2222C3.30476 14.8276 2.91292 14.4329 2.51997 14.0383C2.28032 13.7965 1.99917 13.6747 1.68204 13.6747Z" fill="black"/>
</svg>
