<svg width="31" height="47" viewBox="0 0 31 47" fill="none" xmlns="http://www.w3.org/2000/svg">
<path d="M4.7796 36.0712C7.27138 37.1647 10.0828 38.3969 12.972 39.6649C13.1802 39.2128 13.3862 38.849 13.5166 38.46C13.8951 37.3308 14.6479 36.6768 15.7077 36.088C16.6182 35.5813 17.2406 34.5425 17.9556 33.7098C18.1764 33.4512 18.2542 33.0748 18.4539 32.7909C18.5485 32.6563 18.7756 32.6143 18.9418 32.5302C18.9859 32.7089 19.1226 32.9318 19.0637 33.0601C18.4287 34.429 17.8672 35.985 16.3743 36.5528C14.7572 37.1689 14.2295 38.4221 13.7521 39.8163C13.79 39.8941 13.8047 39.9824 13.8531 40.0097C15.1336 40.7352 15.1379 40.7352 14.5365 42.0957C13.8489 43.6559 13.1549 45.2141 12.4232 46.8647C8.23235 45.0227 4.174 43.2396 0 41.406C0.876856 39.4062 1.67591 37.5095 2.56118 35.657C2.67052 35.4278 3.24668 35.4194 3.87541 35.2238C3.76817 34.5173 3.69036 33.6383 3.49691 32.7867C2.97963 30.501 2.29833 28.2468 1.91142 25.9401C1.70114 24.6973 1.95347 23.3747 2.00604 22.0878C2.0481 21.0764 2.1217 20.0649 2.14272 19.0535C2.15955 18.2502 2.23945 17.4869 3.07005 17.0937C3.92167 16.69 4.65764 17.0432 5.29898 17.5731C6.67209 18.7128 7.16414 20.2184 7.07162 21.9742C6.98961 23.5597 7.35339 24.9139 8.71388 26.0074C11.1699 27.9819 11.929 30.7975 10.8671 33.3145C10.7431 33.6068 10.4865 33.8444 10.2931 34.1072C10.2132 34.0652 10.1333 34.0231 10.0534 33.9811C10.0639 33.7939 10.0323 33.5942 10.0891 33.4217C11.0921 30.3916 10.5685 28.333 8.05361 26.3627C6.58588 25.2125 6.28729 23.7259 6.36929 22.0605C6.45551 20.3257 6.00341 18.8537 4.48311 17.8886C3.65462 17.3629 2.93547 17.6741 2.8808 18.5951C2.73781 21.0301 2.47286 23.4861 2.64949 25.9043C2.79669 27.9041 3.52845 29.8554 3.96372 31.8383C4.25601 33.1505 4.4768 34.4773 4.7796 36.0712ZM0.937836 41.0464C4.72703 42.7076 8.36693 44.3015 12.0741 45.9248C12.8227 44.2132 13.5145 42.6319 14.2316 40.9938C10.455 39.341 6.81298 37.745 3.09738 36.1175C2.3551 37.806 1.6717 39.3705 0.937836 41.0464Z" fill="white"/>
<path d="M7.38284 17.4259C7.33448 17.1105 7.24616 16.793 7.24616 16.4776C7.23775 11.8515 7.22934 7.22329 7.24616 2.59719C7.25247 0.963341 8.15877 0.0297102 9.78211 0.0191964C13.8846 -0.00603689 17.985 -0.0060369 22.0875 0.0170936C23.7803 0.0276074 24.6634 0.950724 24.6655 2.65397C24.6739 11.2774 24.6739 19.8988 24.6655 28.5223C24.6634 30.2718 23.7445 31.1928 22.0139 31.2012C19.314 31.2159 16.614 31.2117 13.9162 31.1991C13.6113 31.197 13.3064 31.0961 13.0014 31.0393C12.9993 30.9173 12.9993 30.7954 12.9972 30.6755C13.361 30.6082 13.7227 30.4863 14.0865 30.4841C16.6456 30.4673 19.2046 30.482 21.7637 30.4757C23.4396 30.4715 23.9506 29.9564 23.9506 28.2573C23.9548 19.8105 23.9548 11.3615 23.9485 2.91471C23.9464 1.2388 23.4186 0.725728 21.7364 0.723625C17.8799 0.721522 14.0234 0.721522 10.1669 0.723625C8.50993 0.725728 7.98213 1.25352 7.98213 2.93574C7.97582 7.38731 7.98424 11.8389 7.97372 16.2904C7.97372 16.6689 7.87069 17.0474 7.81601 17.428C7.67092 17.428 7.52793 17.4259 7.38284 17.4259Z" fill="white"/>
<path d="M14.7573 2.60774C15.5879 2.13672 16.4101 2.13672 17.226 2.5762C16.408 3.13343 15.5837 3.06614 14.7573 2.60774Z" fill="white"/>
<path d="M13.8047 9.64777C13.8047 9.9674 13.8047 10.287 13.8047 10.6066C13.8047 10.7496 13.7458 10.8085 13.607 10.8085C12.972 10.8085 12.337 10.8085 11.6998 10.8085C11.5526 10.8085 11.4958 10.7517 11.4958 10.6024C11.4958 9.9695 11.4958 9.33867 11.4958 8.70573C11.4958 8.55644 11.5526 8.49756 11.6998 8.49756C12.3349 8.49756 12.9699 8.49756 13.607 8.49756C13.7479 8.49756 13.8068 8.55644 13.8068 8.69942C13.8047 9.01694 13.8047 9.33236 13.8047 9.64777ZM13.4725 8.83821C12.9194 8.83821 12.3748 8.83821 11.8323 8.83821C11.8323 9.38913 11.8323 9.92955 11.8323 10.4721C12.3832 10.4721 12.9257 10.4721 13.4725 10.4721C13.4725 9.92324 13.4725 9.38493 13.4725 8.83821Z" fill="white"/>
<path d="M18.0942 9.64354C18.0942 9.33023 18.0942 9.01902 18.0942 8.70571C18.0942 8.55641 18.151 8.49963 18.2982 8.49963C18.9332 8.49963 19.5683 8.49963 20.2054 8.49963C20.3463 8.49963 20.4052 8.55851 20.4052 8.7015C20.4052 9.33654 20.4052 9.97368 20.4052 10.6087C20.4052 10.7517 20.3463 10.8106 20.2054 10.8106C19.5662 10.8106 18.9269 10.8106 18.2898 10.8106C18.1552 10.8106 18.0963 10.7496 18.0963 10.615C18.0942 10.2891 18.0942 9.96737 18.0942 9.64354ZM20.0729 8.83818C19.5199 8.83818 18.9753 8.83818 18.4328 8.83818C18.4328 9.38911 18.4328 9.92952 18.4328 10.472C18.9837 10.472 19.5262 10.472 20.0729 10.472C20.0729 9.92321 20.0729 9.3849 20.0729 8.83818Z" fill="white"/>
<path d="M20.4052 15.7606C20.4052 16.076 20.4052 16.3935 20.4052 16.7089C20.4052 16.8582 20.3484 16.915 20.2012 16.915C19.5662 16.915 18.9311 16.915 18.294 16.915C18.1531 16.915 18.0942 16.8561 18.0942 16.7131C18.0942 16.0781 18.0942 15.441 18.0942 14.8059C18.0942 14.6629 18.1531 14.6041 18.294 14.6041C18.9332 14.6041 19.5725 14.6041 20.2096 14.6041C20.3442 14.6041 20.4031 14.665 20.4031 14.7996C20.4073 15.1213 20.4052 15.441 20.4052 15.7606ZM18.4286 16.5786C18.9816 16.5786 19.5262 16.5786 20.0687 16.5786C20.0687 16.0297 20.0687 15.4872 20.0687 14.9447C19.5178 14.9447 18.9753 14.9447 18.4286 14.9447C18.4286 15.4914 18.4286 16.0297 18.4286 16.5786Z" fill="white"/>
<path d="M13.8047 15.7585C13.8047 16.0718 13.8047 16.383 13.8047 16.6963C13.8047 16.8603 13.7522 16.915 13.5923 16.915C12.9636 16.915 12.3349 16.915 11.7062 16.915C11.5505 16.915 11.4959 16.8603 11.4938 16.7047C11.4938 16.076 11.4938 15.4473 11.4938 14.8185C11.4938 14.6587 11.5484 14.6041 11.7125 14.6041C12.337 14.6041 12.9636 14.6041 13.5881 14.6041C13.75 14.6041 13.8047 14.6587 13.8047 14.8207C13.8047 15.134 13.8047 15.4473 13.8047 15.7585ZM13.4662 16.5828C13.4662 16.0297 13.4662 15.4851 13.4662 14.9426C12.9174 14.9426 12.3748 14.9426 11.8323 14.9426C11.8323 15.4935 11.8323 16.0361 11.8323 16.5828C12.379 16.5828 12.9195 16.5828 13.4662 16.5828Z" fill="white"/>
<path d="M12.9048 12.7073C13.0877 12.7073 13.2622 12.7073 13.4368 12.7073C13.5608 12.7073 13.6365 12.7725 13.6365 12.8776C13.6365 12.9744 13.565 13.0353 13.4389 13.0374C13.2118 13.0395 12.9868 13.0395 12.7597 13.0374C12.6272 13.0353 12.5683 12.9744 12.5683 12.8377C12.5662 12.6043 12.5662 12.3709 12.5662 12.1375C12.5662 12.1311 12.562 12.1248 12.5536 12.1038C12.4653 12.1038 12.3707 12.1059 12.2739 12.1038C12.1331 12.1017 12.0742 12.0428 12.0742 11.9019C12.0742 11.6896 12.0721 11.4751 12.0742 11.2627C12.0742 11.1386 12.1373 11.0714 12.2403 11.0714C12.3433 11.0714 12.4022 11.1407 12.4022 11.2669C12.4043 11.4309 12.4022 11.5949 12.4022 11.7716C12.4506 11.7716 12.4863 11.7716 12.5221 11.7716C13.0919 11.7716 13.6618 11.7716 14.2337 11.7716C14.4188 11.7716 14.465 11.8178 14.465 12.0029C14.465 12.3667 14.4671 12.7304 14.465 13.0963C14.465 13.233 14.3683 13.3129 14.2526 13.2772C14.1601 13.2477 14.1328 13.1741 14.1349 13.0837C14.137 12.7977 14.1349 12.5139 14.1349 12.2279C14.1349 12.19 14.1349 12.1543 14.1349 12.1122C13.7206 12.1122 13.3169 12.1122 12.9048 12.1122C12.9048 12.3057 12.9048 12.4991 12.9048 12.7073Z" fill="white"/>
<path d="M17.1711 11.883C17.1711 12.0113 17.1711 12.1248 17.1711 12.2384C17.1711 12.3477 17.1018 12.4171 16.9924 12.4192C16.9125 12.4192 16.8347 12.4213 16.7548 12.4234C16.7485 12.4234 16.7422 12.4276 16.7191 12.4339C16.7191 12.5538 16.7169 12.68 16.7191 12.8061C16.7212 13.0059 16.6749 13.0543 16.473 13.0564C16.2081 13.0564 15.9452 13.0564 15.6803 13.0543C15.5962 13.0543 15.5373 13.0143 15.5163 12.9281C15.4973 12.8461 15.5289 12.783 15.6004 12.7473C15.634 12.7304 15.6803 12.7283 15.7202 12.7283C15.9053 12.7262 16.0903 12.7283 16.2775 12.7283C16.3111 12.7283 16.3448 12.7283 16.3826 12.7283C16.3826 12.6232 16.3826 12.5328 16.3826 12.4255C16.288 12.4255 16.1976 12.4255 16.105 12.4255C15.8506 12.4255 15.838 12.415 15.798 12.1648C15.7223 12.1648 15.6445 12.1669 15.5667 12.1648C15.4595 12.1606 15.3901 12.0996 15.388 12.0071C15.3838 11.9083 15.4532 11.8389 15.5667 11.8347C15.6656 11.8305 15.7665 11.8326 15.8653 11.8326C16.0987 11.8326 16.1198 11.8515 16.1513 12.0891C16.3742 12.0891 16.5992 12.0891 16.8431 12.0891C16.8431 11.9861 16.8431 11.8809 16.8431 11.7758C16.8431 11.6139 16.8978 11.5613 17.0618 11.5613C17.188 11.5613 17.3162 11.5592 17.4424 11.5613C17.5581 11.5634 17.6253 11.6265 17.6253 11.7253C17.6253 11.8241 17.5581 11.8893 17.4424 11.8914C17.3583 11.883 17.2721 11.883 17.1711 11.883Z" fill="white"/>
<path d="M14.2988 14.6881C14.3472 14.6881 14.385 14.6881 14.4208 14.6881C14.8056 14.6881 15.1904 14.6881 15.5731 14.6881C15.7055 14.6881 15.7791 14.7449 15.7812 14.8479C15.7833 14.9552 15.7098 15.0162 15.571 15.0183C15.1042 15.0183 14.6373 15.0183 14.1705 15.0183C14.0212 15.0183 13.9666 14.9615 13.9666 14.8122C13.9666 14.4989 13.9666 14.1877 13.9666 13.8744C13.9666 13.7419 14.0254 13.6725 14.1327 13.6725C14.2378 13.6725 14.2967 13.744 14.2967 13.8765C14.3009 14.1414 14.2988 14.4043 14.2988 14.6881Z" fill="white"/>
<path d="M15.9242 16.3388C15.7097 16.3388 15.5078 16.3409 15.306 16.3367C15.2597 16.3367 15.2071 16.3283 15.1693 16.3051C15.1041 16.2652 15.0852 16.1979 15.1062 16.1243C15.1293 16.0465 15.1882 16.0065 15.2681 16.0065C15.4805 16.0065 15.695 16.0065 15.9074 16.0065C15.9452 16.0065 15.9831 16.0065 16.0209 16.0065C16.2039 16.0065 16.2543 16.0549 16.2543 16.2378C16.2543 16.3472 16.2543 16.4565 16.2543 16.5785C16.2964 16.5806 16.3321 16.5827 16.3679 16.5827C16.5971 16.5827 16.8284 16.5827 17.0576 16.5827C17.1838 16.5827 17.251 16.6416 17.2531 16.7446C17.2552 16.8497 17.1859 16.9107 17.0618 16.9107C16.7464 16.9128 16.4289 16.9128 16.1134 16.9107C15.9831 16.9107 15.9242 16.8539 15.9221 16.7236C15.9221 16.6016 15.9242 16.4754 15.9242 16.3388Z" fill="white"/>
<path d="M14.9045 10.1083C14.9045 10.2765 14.9045 10.43 14.9045 10.5836C14.9045 10.7413 14.852 10.7917 14.6942 10.7938C14.627 10.7938 14.5597 10.7938 14.4798 10.7938C14.4798 10.8758 14.4819 10.9431 14.4798 11.0104C14.4756 11.1198 14.4083 11.1955 14.3115 11.1955C14.2169 11.1955 14.1517 11.1219 14.1496 11.0083C14.1475 10.8885 14.1475 10.7686 14.1496 10.6487C14.1517 10.5268 14.2127 10.4679 14.3368 10.4658C14.4104 10.4637 14.4861 10.4658 14.5681 10.4658C14.5681 10.3438 14.5681 10.2324 14.5681 10.1083C14.4545 10.1083 14.3452 10.1083 14.2358 10.1083C14.1139 10.1062 14.0403 10.0452 14.0403 9.94431C14.0403 9.84548 14.1139 9.77819 14.2337 9.77819C14.5197 9.77609 14.8036 9.77609 15.0896 9.77819C15.2094 9.77819 15.2809 9.84548 15.2767 9.94851C15.2746 10.0473 15.2052 10.1062 15.0875 10.1083C15.0307 10.1083 14.976 10.1083 14.9045 10.1083Z" fill="white"/>
<path d="M19.251 13.6157C19.0344 13.6157 18.8346 13.6157 18.637 13.6157C18.5003 13.6157 18.4246 13.5526 18.4267 13.4454C18.4288 13.3423 18.5066 13.2855 18.637 13.2855C18.883 13.2855 19.1311 13.2834 19.3771 13.2855C19.5243 13.2855 19.5811 13.3423 19.5811 13.4916C19.5811 13.6388 19.5811 13.786 19.5811 13.9437C19.7767 13.9437 19.9596 13.9437 20.1446 13.9437C20.1825 13.9437 20.2203 13.9416 20.2582 13.9458C20.3465 13.9563 20.4117 14.0278 20.4054 14.114C20.3991 14.2045 20.3486 14.2696 20.2582 14.2717C19.9743 14.2781 19.6883 14.2759 19.4045 14.2717C19.3077 14.2696 19.2531 14.1981 19.2531 14.0888C19.2489 13.9353 19.251 13.7818 19.251 13.6157Z" fill="white"/>
<path d="M19.4211 12.291C19.644 12.291 19.8522 12.291 20.0772 12.291C20.0772 12.127 20.0772 11.9672 20.0772 11.8074C20.0772 11.7296 20.1129 11.6644 20.1844 11.6518C20.237 11.6412 20.3043 11.6602 20.3527 11.6875C20.3821 11.7043 20.4031 11.7632 20.4031 11.8032C20.4073 12.0197 20.4073 12.2363 20.4052 12.4529C20.4031 12.5623 20.34 12.6253 20.2286 12.6253C19.9048 12.6274 19.583 12.6274 19.2592 12.6253C19.1499 12.6253 19.0868 12.5623 19.0868 12.4508C19.0847 12.2552 19.0847 12.0597 19.0868 11.862C19.0889 11.7569 19.1562 11.6896 19.2508 11.6896C19.3454 11.6896 19.4106 11.7569 19.4148 11.8641C19.4169 11.9735 19.4148 12.0849 19.4148 12.1943C19.4169 12.2258 19.419 12.2595 19.4211 12.291Z" fill="white"/>
<path d="M17.5855 10.9179C17.7789 10.9179 17.9703 10.9158 18.1637 10.9179C18.2941 10.92 18.3572 10.9788 18.3593 11.105C18.3614 11.4099 18.3614 11.7169 18.3593 12.0218C18.3593 12.1564 18.2604 12.2384 18.1469 12.2048C18.0586 12.1774 18.027 12.1101 18.0291 12.0218C18.0312 11.7989 18.027 11.576 18.0312 11.351C18.0333 11.269 18.0081 11.2459 17.9261 11.2459C17.6212 11.2501 17.3142 11.248 17.0093 11.248C16.8789 11.248 16.8032 11.1849 16.8032 11.084C16.8032 10.9831 16.8831 10.9179 17.0093 10.9179C17.2006 10.9179 17.392 10.9179 17.5855 10.9179Z" fill="white"/>
<path d="M10.9996 7.75532C10.9996 8.01186 10.9996 8.25578 10.9996 8.4976C10.9996 8.67002 10.9491 8.74362 10.8356 8.74362C10.7199 8.74362 10.6694 8.67002 10.6694 8.4997C10.6694 8.21372 10.6694 7.92985 10.6694 7.64387C10.6694 7.47775 10.722 7.42518 10.8818 7.42518C11.2435 7.42518 11.6031 7.42098 11.9647 7.42939C12.0215 7.43149 12.0993 7.47355 12.1288 7.51981C12.154 7.55766 12.1435 7.64808 12.114 7.68593C12.0825 7.72588 12.0089 7.75111 11.9542 7.75111C11.643 7.75953 11.3297 7.75532 10.9996 7.75532Z" fill="white"/>
<path d="M20.9015 7.75532C20.7817 7.75532 20.6765 7.75532 20.5693 7.75532C20.3485 7.75532 20.1298 7.75742 19.909 7.75322C19.8102 7.75111 19.745 7.68172 19.745 7.5892C19.745 7.50088 19.806 7.42729 19.8985 7.42729C20.2896 7.42308 20.6828 7.42308 21.0739 7.42729C21.1707 7.42729 21.2274 7.49247 21.2296 7.5871C21.2338 7.91723 21.2317 8.24737 21.2296 8.5775C21.2296 8.67844 21.1623 8.74152 21.0697 8.74362C20.973 8.74573 20.9036 8.68054 20.9015 8.5733C20.8973 8.3462 20.8994 8.1191 20.8994 7.892C20.9015 7.85415 20.9015 7.8142 20.9015 7.75532Z" fill="white"/>
<path d="M20.9015 17.6593C20.9015 17.407 20.9015 17.1715 20.9015 16.936C20.9015 16.9023 20.8994 16.8666 20.9015 16.8329C20.9099 16.732 20.9751 16.671 21.0676 16.671C21.1602 16.671 21.2274 16.7341 21.2295 16.835C21.2337 17.0201 21.2316 17.2051 21.2316 17.3923C21.2316 17.529 21.2337 17.6677 21.2316 17.8044C21.2295 17.9285 21.1707 17.9895 21.0487 17.9895C20.6786 17.9916 20.3064 17.9916 19.9363 17.9895C19.8207 17.9895 19.7513 17.9264 19.7492 17.8275C19.7471 17.7245 19.8186 17.6614 19.9405 17.6593C20.2265 17.6572 20.5104 17.6593 20.7964 17.6593C20.8237 17.6593 20.8531 17.6593 20.9015 17.6593Z" fill="white"/>
<path d="M10.9995 17.6593C11.2939 17.6593 11.5715 17.6593 11.8491 17.6593C11.8869 17.6593 11.9248 17.6593 11.9626 17.6593C12.0846 17.6614 12.1561 17.7245 12.154 17.8275C12.1518 17.9243 12.0825 17.9874 11.9668 17.9895C11.7649 17.9916 11.561 17.9895 11.3591 17.9895C11.1909 17.9895 11.0227 17.9916 10.8544 17.9895C10.7325 17.9874 10.6715 17.9285 10.6715 17.8044C10.6694 17.489 10.6694 17.1715 10.6715 16.8561C10.6715 16.7404 10.7367 16.671 10.8355 16.671C10.9343 16.671 10.9995 16.7383 11.0016 16.854C11.0037 17.0811 11.0016 17.3082 11.0016 17.5353C10.9995 17.571 10.9995 17.6068 10.9995 17.6593Z" fill="white"/>
<path d="M17.0892 14.6881C17.0892 14.6166 17.0892 14.5598 17.0892 14.503C17.0892 14.2318 17.0871 13.9605 17.0892 13.6893C17.0892 13.5652 17.1523 13.4937 17.2532 13.4937C17.3562 13.4937 17.4193 13.5631 17.4193 13.6851C17.4214 14.0657 17.4214 14.4484 17.4193 14.829C17.4193 14.9593 17.3604 15.0182 17.2301 15.0182C17.0135 15.0203 16.7969 15.0203 16.5803 15.0182C16.4605 15.0182 16.3869 14.9488 16.389 14.85C16.3911 14.7533 16.4626 14.6902 16.5761 14.6881C16.7422 14.686 16.9062 14.6881 17.0892 14.6881Z" fill="white"/>
<path d="M14.631 16.036C14.4754 16.036 14.3324 16.036 14.1894 16.036C14.0233 16.036 13.9729 15.9855 13.9729 15.8236C13.9729 15.7248 13.9708 15.6239 13.9729 15.525C13.9771 15.4178 14.0423 15.3526 14.1369 15.3526C14.2336 15.3526 14.2967 15.4178 14.3009 15.5271C14.303 15.5818 14.3009 15.6365 14.3009 15.708C14.4439 15.708 14.5785 15.708 14.7151 15.708C14.9191 15.708 14.9612 15.7521 14.9612 15.9582C14.9612 16.2126 14.9612 16.4671 14.9612 16.7215C14.9612 16.8456 14.9002 16.9171 14.7992 16.9192C14.6962 16.9213 14.631 16.8456 14.631 16.7173C14.6289 16.4923 14.631 16.2694 14.631 16.036Z" fill="white"/>
<path d="M16.1724 15.7458C15.8844 15.7458 15.5942 15.7458 15.3061 15.7458C15.1715 15.7458 15.1021 15.689 15.1 15.5839C15.0979 15.4766 15.1673 15.4156 15.2998 15.4156C15.8865 15.4156 16.4752 15.4156 17.0619 15.4156C17.186 15.4156 17.2596 15.4892 17.2533 15.5944C17.247 15.689 17.1797 15.7458 17.0682 15.7458C16.7696 15.7479 16.471 15.7458 16.1724 15.7458Z" fill="white"/>
<path d="M17.4362 10.1504C17.4362 10.0368 17.4362 9.93587 17.4362 9.83704C17.4362 9.51111 17.4362 9.18518 17.4362 8.85715C17.4362 8.73519 17.5014 8.6637 17.6024 8.6637C17.7033 8.6637 17.7664 8.73729 17.7664 8.85925C17.7664 9.33238 17.7664 9.8076 17.7664 10.2807C17.7664 10.4174 17.7075 10.4763 17.5729 10.4763C17.4762 10.4784 17.3795 10.4784 17.2848 10.4763C17.1797 10.4742 17.1103 10.409 17.1082 10.3144C17.1061 10.2197 17.1755 10.1525 17.2785 10.1461C17.3248 10.1483 17.3731 10.1504 17.4362 10.1504Z" fill="white"/>
<path d="M13.2159 14.0173C13.2159 13.8659 13.2159 13.7271 13.2159 13.5863C13.2159 13.5589 13.2138 13.5316 13.218 13.5043C13.2306 13.4075 13.3 13.3444 13.3904 13.3465C13.4766 13.3508 13.546 13.4138 13.546 13.5064C13.5502 13.7335 13.5481 13.9606 13.5439 14.1856C13.5418 14.2823 13.4829 14.3433 13.3883 14.3433C13.0308 14.3475 12.6733 14.3475 12.3159 14.3433C12.217 14.3433 12.154 14.2697 12.1561 14.1771C12.1582 14.0825 12.2254 14.0173 12.3327 14.0152C12.5808 14.0131 12.8268 14.0152 13.075 14.0131C13.1149 14.0173 13.1549 14.0173 13.2159 14.0173Z" fill="white"/>
<path d="M11.8239 13.6977C11.8239 13.8596 11.8239 14.0026 11.8239 14.1477C11.8239 14.276 11.7608 14.3496 11.6536 14.3454C11.5527 14.3433 11.4959 14.2718 11.4938 14.1456C11.4938 13.9542 11.4938 13.7608 11.4938 13.5694C11.4938 13.4265 11.5505 13.3676 11.6935 13.3676C12.03 13.3655 12.3664 13.3676 12.7029 13.3676C12.8248 13.3676 12.8963 13.4328 12.8963 13.5337C12.8963 13.6346 12.8227 13.6977 12.7008 13.6977C12.4505 13.6977 12.2003 13.6977 11.948 13.6977C11.9122 13.6977 11.8744 13.6977 11.8239 13.6977Z" fill="white"/>
<path d="M15.8676 9.10316C15.7666 9.10316 15.6804 9.10316 15.5942 9.10316C15.4617 9.10316 15.3881 9.04429 15.386 8.94125C15.3839 8.83821 15.4596 8.77303 15.5879 8.77093C15.7246 8.76882 15.8634 8.76882 16 8.77093C16.1346 8.77303 16.1935 8.83191 16.1956 8.96648C16.1956 9.02536 16.1956 9.08214 16.1956 9.15784C16.2566 9.15784 16.3091 9.15784 16.3638 9.15784C16.5215 9.15784 16.6792 9.15573 16.839 9.15784C16.9526 9.15994 17.022 9.22512 17.022 9.32395C17.0199 9.41858 16.9526 9.48587 16.8454 9.48587C16.5762 9.48797 16.3091 9.48797 16.04 9.48587C15.9285 9.48377 15.8697 9.42278 15.8655 9.31134C15.8655 9.24825 15.8676 9.18307 15.8676 9.10316Z" fill="white"/>
<path d="M15.201 13.6557C15.098 13.6557 15.0055 13.6578 14.9129 13.6557C14.7973 13.6536 14.73 13.5926 14.7279 13.4917C14.7279 13.3907 14.7931 13.3256 14.9087 13.3256C15.2221 13.3234 15.5333 13.3234 15.8466 13.3256C15.9517 13.3256 16.019 13.3949 16.0169 13.4917C16.0148 13.5863 15.9496 13.6515 15.8424 13.6536C15.7456 13.6557 15.651 13.6536 15.5375 13.6536C15.5375 13.7882 15.5375 13.9185 15.5375 14.0468C15.5375 14.091 15.5396 14.1372 15.5375 14.1814C15.5333 14.2865 15.4681 14.3559 15.3735 14.3559C15.2809 14.3559 15.2115 14.2865 15.2094 14.1814C15.2073 14.0342 15.2094 13.887 15.2073 13.7377C15.2073 13.7167 15.2031 13.6935 15.201 13.6557Z" fill="white"/>
<path d="M18.1364 13.9459C18.313 13.9459 18.475 13.9459 18.6348 13.9459C18.7651 13.9459 18.8387 14.009 18.8366 14.112C18.8345 14.215 18.763 14.2739 18.6306 14.276C18.4245 14.276 18.2184 14.276 18.0123 14.276C17.863 14.276 17.8063 14.2192 17.8063 14.072C17.8063 13.805 17.8063 13.5379 17.8084 13.2688C17.8105 13.1342 17.8715 13.0606 17.9724 13.0648C18.0775 13.069 18.1343 13.1405 18.1343 13.273C18.1364 13.4917 18.1364 13.7104 18.1364 13.9459Z" fill="white"/>
<path d="M17.5435 16.1054C17.5435 15.9939 17.5435 15.8951 17.5435 15.7942C17.5456 15.6701 17.6129 15.5923 17.7159 15.5944C17.8147 15.5965 17.8736 15.6701 17.8736 15.7942C17.8757 15.9456 17.8757 16.097 17.8736 16.2484C17.8715 16.3724 17.8147 16.4334 17.6907 16.4355C17.3858 16.4376 17.0788 16.4376 16.7739 16.4355C16.6519 16.4355 16.5846 16.3682 16.5867 16.2631C16.5888 16.1643 16.6561 16.1054 16.7739 16.1054C17.0241 16.1054 17.2743 16.1054 17.5435 16.1054Z" fill="white"/>
<path d="M19.5811 11.3195C19.3582 11.3195 19.1458 11.3195 18.9334 11.3195C18.8683 11.3195 18.8031 11.3237 18.7379 11.3174C18.6412 11.3111 18.5739 11.2375 18.576 11.1492C18.5781 11.0609 18.6454 10.9894 18.7442 10.9894C19.0764 10.9873 19.4108 10.9873 19.743 10.9894C19.8503 10.9894 19.907 11.0504 19.9112 11.1576C19.9154 11.2838 19.9133 11.412 19.9112 11.5382C19.9091 11.6454 19.846 11.7127 19.7493 11.7148C19.6505 11.7169 19.5853 11.6475 19.5832 11.534C19.579 11.4667 19.5811 11.3994 19.5811 11.3195Z" fill="white"/>
<path d="M16.7759 10.1524C16.7759 10.2386 16.778 10.3122 16.7759 10.3879C16.7717 10.4952 16.7065 10.5604 16.6119 10.5604C16.5152 10.5604 16.4521 10.4931 16.4479 10.3858C16.4458 10.3122 16.4479 10.2365 16.4479 10.1482C16.2607 10.1482 16.0841 10.1503 15.9075 10.1461C15.8591 10.144 15.7939 10.1356 15.7666 10.1041C15.7329 10.062 15.7098 9.99471 15.7161 9.94004C15.7224 9.86644 15.7855 9.82018 15.8633 9.82018C16.1998 9.81807 16.5362 9.81597 16.8727 9.82018C16.9652 9.82018 17.0262 9.89377 17.0283 9.98209C17.0283 10.0683 16.9694 10.1356 16.8769 10.1482C16.8432 10.1524 16.8159 10.1503 16.7759 10.1524Z" fill="white"/>
<path d="M15.8423 10.7938C15.8423 10.8737 15.8444 10.9389 15.8423 11.002C15.8402 11.1197 15.7708 11.1954 15.672 11.1954C15.5774 11.1933 15.5143 11.1197 15.5101 11.0062C15.5038 10.798 15.5038 10.798 15.2914 10.7938C15.1673 10.7917 15.0979 10.7328 15.1 10.6298C15.1 10.5268 15.1673 10.4637 15.2914 10.4637C15.5479 10.4616 15.8066 10.4616 16.0631 10.4637C16.1808 10.4637 16.2565 10.5352 16.2523 10.634C16.2481 10.7307 16.1766 10.7917 16.0631 10.7938C15.9958 10.7959 15.9285 10.7938 15.8423 10.7938Z" fill="white"/>
<path d="M18.5738 12.4592C18.5738 12.3246 18.5717 12.2048 18.5738 12.0849C18.5759 11.9566 18.639 11.8809 18.742 11.883C18.8472 11.8851 18.904 11.9566 18.904 12.0891C18.904 12.2615 18.9061 12.4319 18.904 12.6043C18.9019 12.7326 18.8409 12.7914 18.7126 12.7914C18.5486 12.7914 18.3825 12.7914 18.2185 12.7914C18.0944 12.7914 18.0271 12.7305 18.0271 12.6253C18.0271 12.5202 18.0944 12.4634 18.2185 12.4613C18.3341 12.4592 18.4456 12.4592 18.5738 12.4592Z" fill="white"/>
<path d="M16.5279 13.6977C16.4606 13.6977 16.4102 13.6998 16.3576 13.6977C16.2609 13.6914 16.1957 13.6199 16.1978 13.5316C16.1999 13.4453 16.263 13.376 16.3534 13.3717C16.467 13.3675 16.5805 13.3675 16.6941 13.3717C16.7908 13.376 16.8539 13.439 16.856 13.5358C16.8602 13.7545 16.8602 13.9752 16.856 14.196C16.8539 14.2949 16.7845 14.36 16.6941 14.36C16.6015 14.36 16.53 14.2907 16.53 14.1876C16.5258 14.0278 16.5279 13.8701 16.5279 13.6977Z" fill="white"/>
<path d="M11.9081 12.6253C11.8155 12.6253 11.7398 12.6274 11.6641 12.6253C11.5611 12.6211 11.4917 12.5496 11.4959 12.4571C11.498 12.3667 11.5653 12.2994 11.6641 12.2973C11.7987 12.2952 11.9312 12.2931 12.0658 12.2973C12.1772 12.2994 12.2361 12.3604 12.2382 12.4739C12.2403 12.6043 12.2403 12.7347 12.2382 12.865C12.2361 12.9702 12.1688 13.0396 12.0742 13.0396C11.9795 13.0396 11.9144 12.9702 11.9102 12.865C11.9059 12.7893 11.9081 12.7136 11.9081 12.6253Z" fill="white"/>
<path d="M16.1976 11.3048C16.1976 11.2101 16.1955 11.1344 16.1976 11.0608C16.2018 10.962 16.2691 10.8968 16.3574 10.8926C16.4499 10.8905 16.5235 10.9599 16.5256 11.0629C16.5277 11.1975 16.5277 11.33 16.5256 11.4646C16.5235 11.5697 16.4625 11.6307 16.3574 11.6349C16.2207 11.6391 16.0819 11.6391 15.9452 11.6349C15.8485 11.6328 15.7833 11.5592 15.7833 11.4688C15.7833 11.3805 15.8506 11.3111 15.9494 11.3069C16.0293 11.3027 16.1072 11.3048 16.1976 11.3048Z" fill="white"/>
<path d="M15.1251 12.2952C15.1903 12.2952 15.2408 12.2931 15.2913 12.2952C15.388 12.3015 15.4553 12.3688 15.4553 12.4592C15.4553 12.5496 15.388 12.619 15.2913 12.6232C15.1819 12.6274 15.0705 12.6274 14.9611 12.6232C14.8623 12.619 14.7992 12.558 14.7971 12.4613C14.7929 12.3246 14.7929 12.1858 14.7971 12.0492C14.7992 11.9482 14.8665 11.8851 14.9569 11.883C15.0536 11.8809 15.1188 11.9461 15.1251 12.0534C15.1272 12.1291 15.1251 12.2027 15.1251 12.2952Z" fill="white"/>
<path d="M13.3589 11.1533C13.4724 11.1533 13.586 11.1512 13.6974 11.1533C13.8026 11.1554 13.8699 11.2206 13.872 11.3153C13.872 11.4099 13.8068 11.4793 13.7016 11.4814C13.4724 11.4856 13.2432 11.4856 13.0119 11.4814C12.9089 11.4793 12.8374 11.4036 12.8416 11.3131C12.8437 11.2206 12.9152 11.1554 13.0203 11.1533C13.1318 11.1533 13.2453 11.1533 13.3589 11.1533Z" fill="white"/>
<path d="M14.7952 9.06529C14.7952 8.96225 14.7931 8.85922 14.7952 8.75618C14.7973 8.64894 14.8625 8.58165 14.9572 8.58165C15.0539 8.57955 15.1212 8.64684 15.1233 8.75198C15.1254 8.96856 15.1254 9.18304 15.1233 9.39963C15.1212 9.50477 15.0518 9.57206 14.9572 9.56995C14.8604 9.56785 14.7973 9.50267 14.7952 9.39542C14.7931 9.28608 14.7952 9.17463 14.7952 9.06529Z" fill="white"/>
<path d="M14.465 9.08632C14.465 9.18935 14.4671 9.29239 14.465 9.39542C14.4629 9.50267 14.3977 9.56995 14.3031 9.56995C14.2063 9.57206 14.1391 9.50687 14.1369 9.39963C14.1348 9.18304 14.1327 8.96856 14.1369 8.75198C14.1391 8.64684 14.2084 8.57955 14.3031 8.58165C14.3977 8.58375 14.4608 8.64894 14.465 8.75618C14.4671 8.86763 14.465 8.97697 14.465 9.08632Z" fill="white"/>
<path d="M11.8239 11.5108C11.8239 11.6034 11.826 11.6959 11.8239 11.7884C11.8218 11.8935 11.7545 11.9629 11.662 11.9629C11.5673 11.9629 11.4979 11.8956 11.4958 11.7926C11.4937 11.6034 11.4937 11.4162 11.4958 11.227C11.4979 11.1218 11.5673 11.0566 11.662 11.0566C11.7545 11.0587 11.8155 11.1218 11.8239 11.2228C11.8239 11.2291 11.8239 11.2375 11.8239 11.2438C11.8239 11.3342 11.8239 11.4225 11.8239 11.5108Z" fill="white"/>
<path d="M17.7453 12.7515C17.7453 12.8377 17.7474 12.9239 17.7453 13.008C17.7411 13.1174 17.6717 13.191 17.5749 13.1868C17.4803 13.1826 17.4172 13.1153 17.4172 13.008C17.4172 12.8335 17.4172 12.659 17.4214 12.4823C17.4235 12.3709 17.4866 12.3078 17.5813 12.3078C17.6759 12.3078 17.7411 12.3751 17.7453 12.4802C17.7474 12.5727 17.7453 12.6611 17.7453 12.7515Z" fill="white"/>
<path d="M15.9243 14.2655C15.9243 14.1793 15.9222 14.0931 15.9243 14.0089C15.9285 13.9101 15.9958 13.8449 16.0862 13.8428C16.1745 13.8407 16.2502 13.9059 16.2523 14.0026C16.2565 14.1772 16.2565 14.3517 16.2523 14.5262C16.2502 14.623 16.1745 14.6881 16.0841 14.686C15.9937 14.6839 15.9285 14.6208 15.9243 14.5199C15.9222 14.4358 15.9243 14.3517 15.9243 14.2655Z" fill="white"/>
<path d="M20.3233 13.212C20.3233 13.2877 20.3254 13.3634 20.3233 13.4391C20.319 13.5463 20.256 13.6136 20.1613 13.6157C20.0667 13.6178 19.9973 13.5505 19.9952 13.4454C19.991 13.2835 19.991 13.1237 19.9952 12.9618C19.9973 12.8566 20.0667 12.7893 20.1613 12.7914C20.256 12.7935 20.3212 12.8608 20.3233 12.966C20.3254 13.048 20.3233 13.13 20.3233 13.212Z" fill="white"/>
<path d="M14.9024 14.1834C14.9024 14.2444 14.9066 14.3075 14.9024 14.3685C14.896 14.4589 14.8414 14.5115 14.751 14.522C14.6647 14.5304 14.5848 14.4715 14.5785 14.3811C14.5701 14.2486 14.568 14.114 14.5785 13.9816C14.5848 13.8932 14.6521 13.8449 14.7425 13.8428C14.8288 13.8428 14.8939 13.9059 14.9024 13.9984C14.9045 14.0299 14.9045 14.0594 14.9045 14.0909C14.9045 14.1224 14.9045 14.154 14.9024 14.1834C14.9045 14.1834 14.9024 14.1834 14.9024 14.1834Z" fill="white"/>
<path d="M15.2892 11.3868C15.2892 11.4414 15.2913 11.4961 15.2892 11.5508C15.2829 11.6517 15.2198 11.7148 15.1273 11.7148C15.0348 11.7169 14.9654 11.6538 14.9612 11.555C14.957 11.4414 14.957 11.33 14.9612 11.2164C14.9654 11.1176 15.0348 11.0545 15.1273 11.0566C15.2198 11.0587 15.2829 11.1218 15.2892 11.2206C15.2913 11.2774 15.2892 11.3321 15.2892 11.3868Z" fill="white"/>
<path d="M12.6481 9.07582C12.7785 9.07582 12.9089 9.07372 13.0393 9.07582C13.1633 9.07793 13.2243 9.1368 13.2264 9.25877C13.2285 9.52371 13.2285 9.78656 13.2264 10.0515C13.2264 10.1672 13.1633 10.2302 13.0477 10.2302C12.7827 10.2323 12.5199 10.2323 12.2549 10.2302C12.1351 10.2302 12.0741 10.1651 12.0741 10.0431C12.072 9.78236 12.072 9.52161 12.0741 9.26087C12.0741 9.13891 12.1372 9.07793 12.2591 9.07582C12.3874 9.07582 12.5178 9.07582 12.6481 9.07582ZM12.4084 9.41227C12.4084 9.58049 12.4084 9.73609 12.4084 9.8938C12.5745 9.8938 12.7323 9.8938 12.89 9.8938C12.89 9.72768 12.89 9.57208 12.89 9.41227C12.7259 9.41227 12.5703 9.41227 12.4084 9.41227Z" fill="white"/>
<path d="M19.251 10.2324C19.1206 10.2324 18.9902 10.2345 18.8598 10.2324C18.7379 10.2303 18.6748 10.1714 18.6748 10.0494C18.6727 9.78446 18.6727 9.52162 18.6748 9.25667C18.6748 9.14102 18.7379 9.08003 18.8556 9.07793C19.1206 9.07583 19.3834 9.07583 19.6484 9.07793C19.764 9.07793 19.8271 9.14102 19.8292 9.25667C19.8313 9.52372 19.8313 9.79287 19.8292 10.0599C19.8292 10.1693 19.764 10.2303 19.6547 10.2324C19.518 10.2345 19.3834 10.2324 19.251 10.2324ZM19.4949 9.41648C19.333 9.41648 19.1732 9.41648 19.0091 9.41648C19.0091 9.57839 19.0091 9.734 19.0091 9.89381C19.1732 9.89381 19.333 9.89381 19.4949 9.89381C19.4949 9.73189 19.4949 9.57839 19.4949 9.41648Z" fill="white"/>
<path d="M19.8269 15.7711C19.8269 15.8972 19.829 16.0255 19.8269 16.1517C19.8248 16.2736 19.7659 16.3367 19.644 16.3388C19.379 16.3409 19.1162 16.3409 18.8512 16.3388C18.7356 16.3388 18.6746 16.2757 18.6725 16.158C18.6704 15.893 18.6704 15.6302 18.6725 15.3652C18.6725 15.2496 18.7356 15.1844 18.8491 15.1844C19.1162 15.1823 19.3853 15.1823 19.6524 15.1844C19.7617 15.1844 19.8227 15.2496 19.8248 15.3589C19.829 15.4956 19.8269 15.6344 19.8269 15.7711ZM19.011 15.5166C19.011 15.6848 19.011 15.8425 19.011 16.0024C19.175 16.0024 19.3306 16.0024 19.4905 16.0024C19.4905 15.8383 19.4905 15.6785 19.4905 15.5166C19.3285 15.5166 19.175 15.5166 19.011 15.5166Z" fill="white"/>
<path d="M13.2264 15.7605C13.2264 15.8909 13.2285 16.0212 13.2264 16.1516C13.2243 16.2736 13.1633 16.3367 13.0435 16.3367C12.7785 16.3388 12.5157 16.3388 12.2507 16.3367C12.1351 16.3367 12.0741 16.2736 12.072 16.1558C12.0699 15.8909 12.0699 15.628 12.072 15.3631C12.072 15.2474 12.1351 15.1843 12.2507 15.1822C12.5178 15.1801 12.787 15.1801 13.054 15.1822C13.1634 15.1843 13.2243 15.2474 13.2264 15.3568C13.2285 15.4935 13.2264 15.628 13.2264 15.7605ZM12.8942 15.5229C12.7239 15.5229 12.5662 15.5229 12.4106 15.5229C12.4106 15.689 12.4106 15.8446 12.4106 16.0002C12.5767 16.0002 12.7344 16.0002 12.8942 16.0002C12.8942 15.8362 12.8942 15.6827 12.8942 15.5229Z" fill="white"/>
<path d="M24.4468 13.0206C24.4426 12.9071 24.3711 12.8356 24.2681 12.8377C24.1693 12.8398 24.0999 12.9092 24.0957 13.0164C24.0915 13.1636 24.0915 13.3108 24.0957 13.458C24.0978 13.5631 24.1672 13.6283 24.2723 13.6325C24.3901 13.6367 24.5078 13.6367 24.6256 13.6325C24.7307 13.6283 24.8001 13.5547 24.8022 13.458C24.8022 13.3613 24.7307 13.2877 24.6277 13.2814C24.573 13.2772 24.5183 13.2814 24.4489 13.2814C24.4468 13.1825 24.449 13.1026 24.4468 13.0206Z" fill="white"/>
<path d="M27.0752 14.2382C27.1783 14.2424 27.254 14.1625 27.2582 14.0447C27.2603 13.9522 27.2582 13.8597 27.2582 13.7693C27.2582 13.6725 27.2603 13.5779 27.2582 13.4812C27.254 13.3676 27.1846 13.2961 27.0815 13.2961C26.9785 13.2961 26.9112 13.3634 26.9091 13.4833C26.9049 13.6704 26.9049 13.8597 26.9049 14.0468C26.9049 14.1604 26.9743 14.234 27.0752 14.2382Z" fill="white"/>
<path d="M28.8731 15.2055C28.8752 15.3232 28.9319 15.401 29.0371 15.4031C29.342 15.4073 29.649 15.4094 29.9539 15.4031C30.0506 15.401 30.1053 15.3316 30.1116 15.2349C30.1179 15.1424 30.0485 15.0667 29.9539 15.0541C29.9139 15.0499 29.874 15.052 29.8319 15.052C29.6343 15.052 29.4366 15.052 29.2284 15.052C29.2284 14.8816 29.2284 14.7239 29.2284 14.5662C29.2284 14.4064 29.1675 14.3454 29.0098 14.3433C28.7448 14.3433 28.4799 14.3433 28.2149 14.3433C28.0761 14.3433 27.992 14.4043 27.9899 14.5157C27.9878 14.6293 28.0698 14.6966 28.2149 14.6966C28.4273 14.6966 28.6418 14.6966 28.8731 14.6966C28.8731 14.8753 28.871 15.0393 28.8731 15.2055Z" fill="white"/>
<path d="M27.5612 12.987C27.5612 13.0816 27.5927 13.1552 27.6873 13.1826C27.8093 13.2204 27.9144 13.1321 27.9144 12.987C27.9165 12.659 27.9165 12.3309 27.9144 12.0029C27.9123 11.8683 27.845 11.8031 27.7062 11.801C27.5002 11.7989 27.2941 11.801 27.088 11.801C26.882 11.801 26.6759 11.801 26.4698 11.801C26.3331 11.801 26.249 11.8704 26.249 11.9798C26.249 12.0891 26.331 12.1564 26.4698 12.1564C26.7978 12.1564 27.1259 12.1606 27.4539 12.1543C27.5422 12.1522 27.5675 12.1795 27.5654 12.2658C27.5569 12.5076 27.5612 12.7473 27.5612 12.987Z" fill="white"/>
<path d="M25.9525 15.3084C25.9546 15.4199 26.0303 15.4956 26.1291 15.4935C26.2258 15.4935 26.3015 15.422 26.3036 15.3169C26.3078 15.0813 26.3078 14.8458 26.3036 14.6103C26.3015 14.5052 26.2342 14.4358 26.1291 14.4337C26.0071 14.4295 25.8852 14.4295 25.7653 14.4337C25.6686 14.4379 25.5992 14.5136 25.5971 14.6061C25.595 14.7029 25.6665 14.7786 25.7695 14.7849C25.8242 14.7891 25.8789 14.7849 25.9504 14.7849C25.9525 14.9699 25.9504 15.1381 25.9525 15.3084Z" fill="white"/>
<path d="M29.2978 9.8286C29.014 9.8265 28.7301 9.8265 28.4483 9.8286C28.3243 9.8286 28.257 9.89589 28.2549 10.02C28.2528 10.3038 28.2528 10.5877 28.2549 10.8695C28.2549 10.9998 28.3222 11.065 28.4546 11.0671C28.5955 11.0692 28.7343 11.0671 28.8752 11.0671C29.0182 11.0671 29.1633 11.0692 29.3063 11.0671C29.424 11.065 29.4934 10.9977 29.4934 10.8821C29.4955 10.594 29.4955 10.308 29.4934 10.02C29.4913 9.89589 29.4219 9.8286 29.2978 9.8286ZM29.1338 10.7034C28.9593 10.7034 28.789 10.7034 28.6144 10.7034C28.6144 10.533 28.6144 10.3648 28.6144 10.1903C28.789 10.1903 28.9614 10.1903 29.1338 10.1903C29.1338 10.3669 29.1338 10.5309 29.1338 10.7034Z" fill="white"/>
<path d="M29.5797 8.40925C29.8152 8.41345 30.0507 8.41135 30.2883 8.41135C30.4019 8.41135 30.5154 8.41135 30.6437 8.41135C30.6437 8.47233 30.6437 8.51649 30.6437 8.56065C30.6437 8.80457 30.6416 9.04639 30.6458 9.29031C30.6479 9.40386 30.7236 9.47535 30.8266 9.47115C30.9255 9.46905 30.997 9.39965 30.997 9.29241C30.9991 8.93915 30.9991 8.58378 30.997 8.23051C30.997 8.12748 30.9339 8.06019 30.8308 8.05809C30.4103 8.05388 29.9897 8.05388 29.5713 8.05809C29.4725 8.05809 29.4073 8.13799 29.4073 8.23262C29.4052 8.33145 29.4725 8.40715 29.5797 8.40925Z" fill="white"/>
<path d="M27.8427 11.6854C28.5282 11.6854 29.2137 11.6854 29.8992 11.6854C30.0506 11.6854 30.1137 11.6223 30.1137 11.4688C30.1137 10.7875 30.1137 10.1041 30.1137 9.42282C30.1137 9.26932 30.0506 9.20624 29.8992 9.20624C29.2179 9.20624 28.5366 9.20624 27.8532 9.20624C27.6955 9.20624 27.6345 9.26722 27.6345 9.42913C27.6345 9.76558 27.6345 10.0999 27.6345 10.4364C27.6345 10.7833 27.6345 11.1303 27.6345 11.4751C27.6345 11.6223 27.6976 11.6854 27.8427 11.6854ZM27.9962 9.57212C28.5787 9.57212 29.1611 9.57212 29.7562 9.57212C29.7562 10.1588 29.7562 10.7371 29.7562 11.3237C29.1695 11.3237 28.5871 11.3237 27.9962 11.3237C27.9962 10.7413 27.9962 10.1609 27.9962 9.57212Z" fill="white"/>
<path d="M26.0092 16.2021C26.2405 16.2042 26.4739 16.2042 26.7052 16.2021C26.8461 16.2 26.9092 16.139 26.9092 15.9982C26.9113 15.5881 26.9113 15.1802 26.9092 14.7701C26.9092 14.6377 26.8398 14.562 26.7305 14.5641C26.6232 14.5641 26.5559 14.6419 26.5538 14.7743C26.5517 15.0645 26.5538 15.3568 26.5538 15.647C26.5538 15.708 26.5538 15.7711 26.5538 15.8468C26.3583 15.8468 26.1816 15.8447 26.005 15.8468C25.883 15.8489 25.8052 15.9162 25.8031 16.0192C25.801 16.1285 25.883 16.2 26.0092 16.2021Z" fill="white"/>
<path d="M26.762 11.3321C26.8651 11.3342 26.9681 11.3342 27.0712 11.3321C27.2162 11.33 27.2793 11.2669 27.2793 11.1218C27.2793 10.613 27.2793 10.1041 27.2793 9.59523C27.2793 9.46485 27.212 9.38705 27.1048 9.38495C26.9976 9.38495 26.9282 9.46275 26.9261 9.59312C26.924 9.94429 26.9261 10.2933 26.9261 10.6445C26.9261 10.7517 26.9261 10.8569 26.9261 10.981C26.8588 10.981 26.8062 10.9788 26.7557 10.981C26.6443 10.9873 26.5707 11.0588 26.5728 11.1597C26.5749 11.2585 26.6485 11.33 26.762 11.3321Z" fill="white"/>
<path d="M30.1096 12.7515C30.1096 12.7073 30.0865 12.6463 30.0549 12.6274C30.0023 12.598 29.9309 12.5769 29.8741 12.5875C29.7963 12.6022 29.7584 12.6737 29.7584 12.7557C29.7584 12.9281 29.7584 13.0984 29.7584 13.2751C29.5187 13.2751 29.2937 13.2751 29.0561 13.2751C29.054 13.2393 29.0519 13.2057 29.0498 13.1699C29.0498 13.0522 29.0519 12.9344 29.0477 12.8167C29.0456 12.7031 28.9741 12.6295 28.8732 12.6295C28.7722 12.6295 28.6986 12.701 28.6965 12.8146C28.6944 13.0248 28.6944 13.2351 28.6965 13.4454C28.6986 13.5631 28.7638 13.6325 28.8816 13.6325C29.2285 13.6346 29.5755 13.6346 29.9203 13.6325C30.0402 13.6325 30.1075 13.5653 30.1096 13.4475C30.1138 13.2162 30.1138 12.9849 30.1096 12.7515Z" fill="white"/>
<path d="M29.2263 12.4655C29.2305 12.5875 29.2999 12.6611 29.4051 12.659C29.5081 12.6569 29.5754 12.5875 29.5796 12.4697C29.5817 12.3331 29.5838 12.1964 29.5796 12.0618C29.5775 11.9462 29.5144 11.8831 29.4009 11.881C29.0434 11.8789 28.6859 11.8789 28.3284 11.881C28.2233 11.881 28.1497 11.9588 28.1497 12.0534C28.1476 12.148 28.2212 12.2258 28.3242 12.2321C28.3936 12.2384 28.4651 12.2342 28.5345 12.2342C28.7616 12.2342 28.9887 12.2342 29.2284 12.2342C29.2263 12.3205 29.2242 12.3919 29.2263 12.4655Z" fill="white"/>
<path d="M30.0234 14.5073C30.0255 14.4274 30.0234 14.3454 30.0234 14.2655C30.0234 14.1772 30.0255 14.0889 30.0234 14.0005C30.0192 13.887 29.9498 13.8134 29.8489 13.8134C29.7479 13.8113 29.6722 13.8849 29.6701 13.9963C29.6659 14.1688 29.6659 14.3412 29.6701 14.5157C29.6722 14.6272 29.7479 14.7008 29.8489 14.6987C29.9519 14.6945 30.0192 14.6209 30.0234 14.5073Z" fill="white"/>
<path d="M27.7671 13.8113C27.9437 13.8134 28.1203 13.8113 28.297 13.8113C28.4337 13.8113 28.5009 13.7482 28.503 13.6094C28.5052 13.4244 28.5052 13.2414 28.503 13.0564C28.503 12.9155 28.44 12.8377 28.3285 12.8356C28.2192 12.8335 28.1498 12.9155 28.1477 13.0522C28.1456 13.1805 28.1477 13.3087 28.1477 13.4538C28.0089 13.4538 27.889 13.4517 27.7692 13.4538C27.6346 13.4559 27.5631 13.519 27.5631 13.6305C27.5631 13.7461 27.6346 13.8113 27.7671 13.8113Z" fill="white"/>
<path d="M25.4772 15.8468C25.574 15.8489 25.6539 15.7795 25.656 15.6744C25.6623 15.4872 25.6623 15.3001 25.656 15.1108C25.6539 15.0078 25.5719 14.9363 25.4772 14.9384C25.4121 14.9405 25.3616 14.972 25.3322 15.0246V15.7585C25.3616 15.8132 25.4121 15.8468 25.4772 15.8468Z" fill="white"/>
<path d="M25.9504 12.3898C25.9546 12.2468 25.9546 12.1017 25.9504 11.9587C25.9483 11.8494 25.8705 11.7737 25.7695 11.7758C25.6728 11.7779 25.6013 11.8494 25.5971 11.9545C25.5929 12.0344 25.5971 12.1164 25.5971 12.2174C25.5004 12.2174 25.4163 12.2153 25.3322 12.2174V12.5685C25.4772 12.5728 25.6244 12.5728 25.7716 12.5685C25.8831 12.5685 25.9483 12.5013 25.9504 12.3898Z" fill="white"/>
<path d="M25.4036 14.5662C25.4036 14.5052 25.3763 14.4548 25.3322 14.4232V14.7029C25.3763 14.6734 25.4036 14.6272 25.4036 14.5662Z" fill="white"/>
<path d="M26.2931 10.2681C26.4067 10.2681 26.4803 10.1945 26.4824 10.0936C26.4845 9.98845 26.4088 9.91696 26.2868 9.91486C26.1165 9.91275 25.9483 9.91486 25.7779 9.91486C25.7212 9.91486 25.6644 9.91486 25.5971 9.91486C25.5971 9.83495 25.5971 9.77187 25.5971 9.71089C25.595 9.5658 25.5319 9.50271 25.3868 9.50061C25.3679 9.50061 25.3511 9.50061 25.3322 9.50061V10.2429C25.3595 10.2576 25.391 10.2681 25.431 10.2681C25.7191 10.2723 26.0071 10.2723 26.2931 10.2681Z" fill="white"/>
<path d="M24.9451 9.50063C24.8085 9.50273 24.7265 9.57212 24.7286 9.68357C24.7307 9.79291 24.8106 9.856 24.9514 9.856C25.044 9.856 25.1344 9.856 25.2437 9.856C25.2437 9.94221 25.2416 10.0116 25.2437 10.081C25.2458 10.1609 25.2774 10.2135 25.3321 10.2429V9.50063C25.2038 9.50063 25.0734 9.49853 24.9451 9.50063Z" fill="white"/>
<path d="M25.4541 11.6706C25.5761 11.6685 25.6539 11.6034 25.6581 11.5003C25.6623 11.3952 25.5803 11.3174 25.4541 11.3174C25.4142 11.3174 25.3721 11.3174 25.3322 11.3174V11.6706C25.3742 11.6706 25.4142 11.6706 25.4541 11.6706Z" fill="white"/>
<path d="M25.8642 10.9788C25.8642 11.0735 25.8621 11.1534 25.8642 11.2333C25.8684 11.3489 25.9357 11.4183 26.0387 11.4204C26.1417 11.4204 26.2111 11.351 26.2153 11.2354C26.2196 11.1555 26.2153 11.0756 26.2153 10.983C26.2595 10.9809 26.2889 10.9809 26.3184 10.9767C26.4172 10.9641 26.4824 10.8926 26.4803 10.8001C26.4803 10.7076 26.413 10.6277 26.3142 10.6277C25.9861 10.6235 25.6581 10.6256 25.3301 10.6277V10.9788C25.5067 10.9809 25.6812 10.9788 25.8642 10.9788Z" fill="white"/>
<path d="M30.1116 18.0168C30.1116 17.6783 30.1116 17.3376 30.1116 16.9991C30.1116 16.6563 30.1116 16.3136 30.1116 15.9708C30.1116 15.8257 30.0485 15.7606 29.9034 15.7606C29.2179 15.7606 28.5324 15.7606 27.8469 15.7606C27.6955 15.7606 27.6324 15.8236 27.6324 15.9771C27.6324 16.6584 27.6324 17.3418 27.6324 18.0231C27.6324 18.1766 27.6955 18.2397 27.8469 18.2397C28.5282 18.2397 29.2095 18.2397 29.8929 18.2397C30.0506 18.2376 30.1116 18.1766 30.1116 18.0168ZM29.752 17.8759C29.1696 17.8759 28.585 17.8759 27.992 17.8759C27.992 17.2872 27.992 16.711 27.992 16.1222C28.5787 16.1222 29.1612 16.1222 29.752 16.1222C29.752 16.7047 29.752 17.2851 29.752 17.8759Z" fill="white"/>
<path d="M28.4463 17.6173C28.7301 17.6194 29.014 17.6194 29.2958 17.6173C29.4261 17.6173 29.4892 17.55 29.4913 17.4175C29.4934 17.2808 29.4913 17.1442 29.4913 17.0096C29.4913 16.8624 29.4934 16.7152 29.4913 16.568C29.4892 16.4502 29.4219 16.3808 29.3063 16.3808C29.0182 16.3787 28.7322 16.3787 28.4442 16.3808C28.3201 16.383 28.2549 16.4502 28.2528 16.5743C28.2507 16.8582 28.2507 17.1421 28.2528 17.4238C28.2549 17.55 28.3201 17.6173 28.4463 17.6173ZM28.6166 16.7362C28.7911 16.7362 28.9572 16.7362 29.1297 16.7362C29.1297 16.9107 29.1297 17.079 29.1297 17.2577C28.9593 17.2577 28.7932 17.2577 28.6166 17.2577C28.6166 17.0874 28.6166 16.9171 28.6166 16.7362Z" fill="white"/>
<path d="M30.997 18.1493C30.9949 18.042 30.9213 17.9748 30.8224 17.9727C30.7236 17.9727 30.6542 18.0399 30.6458 18.1472C30.6437 18.1829 30.6458 18.2208 30.6458 18.2586C30.6458 18.5131 30.6458 18.7654 30.6458 19.0367C30.5953 19.0367 30.5638 19.0367 30.5301 19.0367C30.2252 19.0367 29.9182 19.0367 29.6133 19.0367C29.483 19.0367 29.4052 19.106 29.4073 19.2154C29.4094 19.3205 29.4851 19.3878 29.607 19.3878C30.0045 19.3899 30.404 19.3899 30.8014 19.3878C30.9339 19.3878 30.997 19.3226 30.9991 19.1881C31.0012 19.0409 30.9991 18.8937 30.9991 18.7465C30.997 18.5488 30.9991 18.3491 30.997 18.1493Z" fill="white"/>
<path d="M26.5328 16.9823C26.6527 16.9823 26.7242 16.9213 26.7326 16.8204C26.741 16.7068 26.6611 16.629 26.5286 16.629C26.1312 16.629 25.7317 16.629 25.3342 16.629V16.9844C25.4141 16.9844 25.4919 16.9844 25.5718 16.9844C25.8915 16.9823 26.2111 16.9844 26.5328 16.9823Z" fill="white"/>
<path d="M28.4294 15.2307C28.4315 15.1193 28.3516 15.0541 28.2128 15.052C28.0404 15.052 27.868 15.052 27.6787 15.052C27.6787 14.7996 27.6787 14.5662 27.6787 14.3307C27.6787 14.1877 27.6177 14.112 27.5042 14.1078C27.3948 14.1036 27.3296 14.1814 27.3275 14.3265C27.3254 14.6125 27.3254 14.9006 27.3254 15.1887C27.3254 15.3464 27.3864 15.4052 27.5483 15.4073C27.7691 15.4073 27.9899 15.4073 28.2107 15.4073C28.3495 15.4052 28.4294 15.3422 28.4294 15.2307Z" fill="white"/>
<path d="M26.5223 17.8844C26.2763 17.8823 26.0281 17.8844 25.7821 17.8844C25.7443 17.8844 25.7043 17.8801 25.6602 17.878C25.6602 17.7477 25.6602 17.6299 25.6602 17.5122C25.6602 17.3166 25.6076 17.264 25.4099 17.264C25.3847 17.264 25.3595 17.264 25.3342 17.264V18.1514C25.3637 18.2082 25.4204 18.2376 25.5109 18.2376C25.8494 18.2397 26.188 18.2397 26.5286 18.2376C26.6611 18.2376 26.7347 18.1703 26.7326 18.0589C26.7305 17.9474 26.659 17.8844 26.5223 17.8844Z" fill="white"/>
<path d="M27.2266 16.8225C27.1152 16.8204 27.0437 16.9024 27.0416 17.037C27.0395 17.1421 27.0416 17.2494 27.0416 17.3692C26.7535 17.3692 26.4844 17.3671 26.2152 17.3692C26.0869 17.3692 26.0155 17.4323 26.0134 17.5395C26.0112 17.651 26.0827 17.7225 26.2152 17.7225C26.5432 17.7246 26.8713 17.7246 27.1993 17.7225C27.3318 17.7204 27.3949 17.6573 27.397 17.5227C27.3991 17.3608 27.3991 17.1989 27.397 17.037C27.3949 16.9024 27.3318 16.8246 27.2266 16.8225Z" fill="white"/>
<path d="M26.1586 13.826C26.1565 13.6914 26.1586 13.5548 26.1586 13.4265C26.1838 13.4202 26.1901 13.416 26.1964 13.416C26.2805 13.4139 26.3667 13.4139 26.4509 13.4118C26.5686 13.4097 26.6422 13.3361 26.6422 13.2183C26.6422 13.0964 26.6422 12.9765 26.6422 12.8377C26.7516 12.8377 26.8441 12.8398 26.9345 12.8377C27.0565 12.8356 27.1301 12.7662 27.1301 12.6611C27.1301 12.5538 27.0565 12.4866 26.9324 12.4845C26.7957 12.4824 26.659 12.4845 26.5223 12.4845C26.3478 12.4845 26.2889 12.5412 26.2889 12.7158C26.2889 12.8272 26.2889 12.9408 26.2889 13.0522C26.0282 13.0522 25.7864 13.0522 25.5467 13.0522C25.5172 12.8335 25.4962 12.7894 25.3301 12.7809V13.4076C25.3721 13.4139 25.4247 13.4139 25.4983 13.4139C25.5971 13.4139 25.6939 13.4139 25.7948 13.4139C25.7948 13.5274 25.7948 13.6263 25.7948 13.7398C25.7527 13.7398 25.717 13.7398 25.6812 13.7398C25.5635 13.7398 25.4478 13.7398 25.3301 13.7398V14.0931C25.5172 14.0952 25.7044 14.0952 25.8915 14.0952C26.1123 14.0931 26.1607 14.0405 26.1586 13.826Z" fill="white"/>
<path d="M25.2859 17.264C25.0567 17.264 24.8296 17.264 24.6004 17.264C24.5142 17.264 24.4511 17.3061 24.4259 17.3902C24.4028 17.468 24.4238 17.5416 24.4932 17.5837C24.5352 17.6089 24.5899 17.6152 24.6404 17.6173C24.857 17.6215 25.0735 17.6194 25.3027 17.6194C25.3027 17.7666 25.3006 17.9033 25.3027 18.0379C25.3048 18.0862 25.3154 18.122 25.3301 18.1514V17.264C25.3175 17.264 25.3027 17.264 25.2859 17.264Z" fill="white"/>
<path d="M24.636 16.629C24.4951 16.629 24.4194 16.6942 24.4216 16.8098C24.4237 16.9234 24.4973 16.9823 24.6423 16.9823C24.8736 16.9823 25.1029 16.9823 25.3342 16.9823V16.6269C25.1007 16.629 24.8673 16.629 24.636 16.629Z" fill="white"/>
<path d="M25.2354 10.6256C25.1534 10.6256 25.0861 10.6739 25.0777 10.7538C25.0714 10.8127 25.0945 10.8863 25.1324 10.9305C25.1618 10.9641 25.2312 10.9746 25.2838 10.9746C25.3006 10.9746 25.3174 10.9746 25.3321 10.9746V10.6235C25.3006 10.6256 25.2669 10.6256 25.2354 10.6256Z" fill="white"/>
<path d="M25.2397 12.7768C25.1324 12.7768 25.0252 12.7747 24.92 12.7789C24.7981 12.7831 24.7245 12.8567 24.7287 12.9618C24.7329 13.0606 24.8065 13.1279 24.92 13.1321C25.0042 13.1342 25.0883 13.1321 25.1682 13.1321C25.1997 13.3298 25.2165 13.3887 25.3301 13.4055V12.7789C25.3048 12.7768 25.2754 12.7768 25.2397 12.7768Z" fill="white"/>
<path d="M25.1554 12.394C25.1554 12.4907 25.2248 12.5685 25.3299 12.5706H25.332V12.2195C25.229 12.2237 25.1575 12.2973 25.1554 12.394Z" fill="white"/>
<path d="M24.6277 11.3174C24.4931 11.3174 24.4216 11.3846 24.4216 11.4961C24.4216 11.6075 24.4952 11.6685 24.6277 11.6727C24.8548 11.6769 24.8548 11.6769 24.8611 11.9019C24.8653 12.0239 24.9326 12.1017 25.0335 12.1038C25.1387 12.1059 25.2123 12.0218 25.2165 11.8977C25.2186 11.8283 25.2165 11.7589 25.2165 11.6727C25.2585 11.6727 25.2964 11.6727 25.3321 11.6727V11.3195C25.0966 11.3153 24.8611 11.3153 24.6277 11.3174Z" fill="white"/>
<path d="M25.086 13.7398C25.0418 13.7398 24.9955 13.7419 24.9577 13.7608C24.882 13.7987 24.8463 13.8659 24.8673 13.9543C24.8883 14.0468 24.9514 14.0909 25.0418 14.0909C25.1385 14.0909 25.2353 14.0909 25.3299 14.0909V13.7377C25.25 13.7398 25.168 13.7377 25.086 13.7398Z" fill="white"/>
<path d="M25.3046 15.1171C25.3004 15.2096 25.3046 15.3 25.3046 15.3926C25.3046 15.4851 25.3025 15.5776 25.3046 15.668C25.3067 15.7038 25.3172 15.7332 25.3319 15.7605V15.0267C25.3172 15.054 25.3067 15.0834 25.3046 15.1171Z" fill="white"/>
<path d="M25.2206 14.3874C24.8863 14.3853 24.5498 14.3853 24.2155 14.3874C24.0914 14.3874 24.0199 14.4589 24.022 14.5662C24.022 14.6734 24.0956 14.7386 24.2197 14.7407C24.3185 14.7428 24.4173 14.7407 24.5288 14.7407C24.5309 14.7807 24.5351 14.8059 24.5351 14.8311C24.5351 14.9888 24.533 15.1486 24.5372 15.3064C24.5393 15.4178 24.6129 15.4935 24.7138 15.4935C24.8148 15.4935 24.8863 15.4199 24.8905 15.3064C24.8926 15.258 24.8905 15.2096 24.8905 15.1634C24.8905 15.0246 24.8905 14.8858 24.8905 14.7428C25.0124 14.7428 25.1155 14.7449 25.2164 14.7428C25.2648 14.7407 25.3005 14.726 25.332 14.705V14.4253C25.3026 14.4022 25.2669 14.3874 25.2206 14.3874Z" fill="white"/>
</svg>
