<svg width="50" height="47" viewBox="0 0 50 47" fill="none" xmlns="http://www.w3.org/2000/svg">
<path d="M1.79572e-05 23.3685C1.79572e-05 10.5297 11.1163 -0.0307213 24.5848 6.71514e-05C37.8921 0.0308556 49.0729 10.8222 49.0084 23.584C48.944 36.4536 37.9082 46.86 24.3431 46.8446C10.8102 46.8292 -0.0160926 36.392 1.79572e-05 23.3685ZM24.327 43.5811C34.8956 43.9659 45.3675 35.7146 45.6091 23.5994C45.8186 12.6849 36.12 3.34062 24.7942 3.27904C13.0496 3.20207 3.43157 12.1461 3.38324 23.153C3.35102 34.6216 12.5018 43.5503 24.327 43.5811Z" fill="#0171FD"/>
<path d="M19.9451 20.4281C20.2512 17.026 19.349 13.5623 22.555 11.3148C24.9394 9.6522 27.6782 10.114 30.5298 10.3295C30.5298 11.7612 30.5298 13.1467 30.5298 14.5168C25.1166 15.4404 25.1166 15.4404 25.5033 20.305C26.2282 20.305 26.9854 20.305 27.7265 20.305C28.4998 20.305 29.2731 20.305 30.4009 20.305C30.1915 21.9983 29.9981 23.5532 29.8048 25.2465C28.3226 25.2465 26.9854 25.2465 25.4549 25.2465C25.4549 29.3876 25.4549 33.3593 25.4549 37.4541C23.6344 37.4541 22.0234 37.4541 20.1384 37.4541C20.1384 33.4824 20.1384 29.4491 20.1384 25.2311C18.5596 25.2311 17.2546 25.2311 15.8208 25.2311C15.8208 23.5686 15.8208 22.0907 15.8208 20.4281C17.0774 20.4281 18.3985 20.4281 19.9451 20.4281Z" fill="#0171FD"/>
</svg>
