<svg width="50" height="47" viewBox="0 0 50 47" fill="none" xmlns="http://www.w3.org/2000/svg">
<path d="M0.0646082 23.5429C-0.257604 12.0435 9.21542 0.313012 24.3916 0.00512806C37.7634 -0.271968 49.1214 10.7195 49.0408 23.5275C48.9603 36.4279 37.9567 46.8189 24.4077 46.8035C10.9231 46.7882 0.0807188 36.4279 0.0646082 23.5429ZM3.44783 23.4352C3.14173 34.7345 13.4847 43.4938 24.2144 43.6169C35.2501 43.7401 45.5609 35.0732 45.6092 23.5275C45.6576 12.3821 36.0718 3.20719 24.4238 3.25338C12.4698 3.28416 3.14173 12.8901 3.44783 23.4352Z" fill="#BF2987"/>
<path d="M24.7621 10.9657C26.9531 11.0889 28.9347 11.1813 30.9163 11.3044C34.6862 11.5507 37.4572 14.0908 37.5861 17.6931C37.7311 21.557 37.7311 25.4209 37.5861 29.2848C37.4572 32.9179 34.6217 35.5965 30.7391 35.735C26.6953 35.889 22.6516 35.9043 18.6078 35.7196C14.7413 35.5503 12.1797 32.9794 12.0669 29.2694C11.938 25.3439 11.938 21.4184 12.083 17.5082C12.2119 13.983 14.709 11.6277 18.3984 11.3352C20.5572 11.1505 22.7643 11.0735 24.7621 10.9657ZM14.0324 23.5274C14.1935 25.7134 14.2418 27.8839 14.5318 30.0237C14.7896 31.9172 16.1107 33.195 18.06 33.272C22.4421 33.4413 26.8403 33.4259 31.2224 33.3027C33.3329 33.2411 34.9278 31.7941 35.0084 29.8236C35.1695 25.6364 35.1856 21.4338 35.0245 17.2466C34.9439 15.3377 33.6712 13.8444 31.5285 13.7675C27.0014 13.6289 22.4744 13.6136 17.9634 13.7521C15.9818 13.8137 14.7574 15.1837 14.5157 17.0464C14.2418 19.2016 14.1774 21.3722 14.0324 23.5274Z" fill="#BF2987"/>
<path d="M31.3353 23.4814C31.3514 27.0837 28.5481 29.7777 24.7782 29.7777C20.9761 29.7777 17.9796 26.9452 18.0279 23.3583C18.0763 19.9408 21.1695 17.0775 24.7782 17.1083C28.4676 17.1545 31.3191 19.91 31.3353 23.4814ZM20.509 23.4661C20.4928 25.7752 22.3939 27.6225 24.7621 27.6071C27.066 27.5917 29.0798 25.6058 29.0476 23.4199C28.9992 21.2339 27.1304 19.4789 24.8266 19.4327C22.3778 19.3865 20.5251 21.1262 20.509 23.4661Z" fill="#BF2987"/>
<path d="M34.0257 16.9081C32.8174 17.6009 32.1569 18.2782 31.5447 18.2474C31.0292 18.2166 30.1753 17.3545 30.1753 16.8773C30.1914 16.3847 31.0453 15.538 31.5608 15.5226C32.1891 15.4918 32.8335 16.1846 34.0257 16.9081Z" fill="#BF2987"/>
</svg>
