<svg width="50" height="48" viewBox="0 0 50 48" fill="none" xmlns="http://www.w3.org/2000/svg">
<path d="M24.5197 47.107C11.309 47.1224 0.305481 36.9007 0.0154907 24.8162C-0.306721 11.3309 11.0351 0.493393 24.2619 0.539576C37.8915 0.585758 48.9434 10.8537 49.0561 23.7387C49.1528 36.562 38.0848 47.0916 24.5197 47.107ZM24.8097 43.982C36.941 43.7357 45.8662 34.7301 45.6246 23.0151C45.399 12.4547 35.4588 3.41828 24.3586 3.6338C11.744 3.88011 2.85095 14.1326 3.43094 24.9702C3.9787 35.392 13.5967 44.2129 24.8097 43.982Z" fill="#0673BC"/>
<path d="M37.5048 34.0374C35.8132 34.0374 34.331 34.0374 32.5266 34.0374C32.5266 31.0818 32.6877 28.1261 32.4299 25.1858C32.3494 24.3237 31.2861 23.123 30.4 22.8305C29.0145 22.3686 27.7418 23.1076 27.3873 24.647C27.1779 25.5552 27.0168 26.5097 26.9846 27.4333C26.9201 29.5885 26.9685 31.7437 26.9685 33.9913C25.293 33.9913 23.843 33.9913 22.2803 33.9913C22.2803 28.9728 22.2803 24.062 22.2803 19.0589C23.7947 19.0589 25.1963 19.0589 26.7912 19.0589C26.8718 19.4745 26.9523 19.9363 27.0007 20.2288C28.3217 19.6746 29.5461 18.828 30.8511 18.6894C34.8949 18.243 37.1665 20.0595 37.4565 24.062C37.682 27.2794 37.5048 30.543 37.5048 34.0374Z" fill="#0673BC"/>
<path d="M14.2412 19.074C15.8039 19.074 17.2539 19.074 18.8166 19.074C18.8166 24.0463 18.8166 28.9571 18.8166 33.9756C17.27 33.9756 15.82 33.9756 14.2412 33.9756C14.2412 28.9879 14.2412 24.0925 14.2412 19.074Z" fill="#0673BC"/>
<path d="M13.7419 14.0403C13.7741 12.5778 15.0951 11.3463 16.6579 11.4694C18.285 11.608 19.2356 12.5008 19.3 14.1018C19.3645 15.5489 17.995 16.8266 16.4968 16.8266C14.9663 16.8112 13.7257 15.5489 13.7419 14.0403Z" fill="#0673BC"/>
</svg>
