<svg width="50" height="47" viewBox="0 0 50 47" fill="none" xmlns="http://www.w3.org/2000/svg">
<path d="M24.5527 46.8161C11.342 46.8315 0.354609 36.4866 0.0485074 24.2636C-0.273704 11.6558 9.82763 0.202468 24.5205 0.00234372C37.8601 -0.182387 48.9925 10.5782 49.073 23.4169C49.1858 36.1941 38.0695 46.7853 24.5527 46.8161ZM24.5205 43.5371C35.3951 43.8912 45.6415 34.9934 45.6415 23.4477C45.6415 12.2715 36.0879 3.18894 24.3433 3.21973C12.8725 3.25052 3.62505 12.3331 3.44783 23.4015C3.28673 34.47 13.3558 43.9066 24.5205 43.5371Z" fill="#19A1F7"/>
<path d="M12.2928 33.0229C14.7738 32.3763 17.271 31.7298 19.752 31.0832C17.8187 29.6978 16.2077 28.5586 14.5966 27.404C14.7094 27.2039 14.806 26.9884 14.9188 26.7882C15.4666 26.7421 16.0143 26.6959 17.1582 26.6035C14.4677 25.3874 12.8567 23.9403 12.7439 21.2617C13.3239 21.3541 13.8716 21.4465 14.8544 21.6004C12.7922 19.4144 12.2444 17.1823 13.3239 14.7038C15.1927 15.9661 16.8521 17.3824 18.7692 18.306C20.6703 19.2297 22.8291 19.6607 24.8107 20.2919C25.3101 18.5985 25.4873 17.2285 26.1157 16.0893C27.5334 13.5184 30.8361 12.3793 33.3654 13.9341C35.2343 15.0887 36.6842 14.9347 38.6658 14.2574C38.1342 14.9809 37.6025 15.689 36.942 16.5973C37.7314 16.4741 38.408 16.3664 39.0847 16.2432C36.6681 17.9982 36.8453 20.6306 36.3137 23.0475C34.1065 33.0845 21.5403 38.3493 12.3733 33.1307C12.2606 33.0845 12.2444 32.8997 12.2928 33.0229Z" fill="#19A1F7"/>
</svg>
